<?xml version="1.0" encoding="UTF-8" standalone="no"?>
<!DOCTYPE svg PUBLIC "-//W3C//DTD SVG 1.1//EN"
 "http://www.w3.org/Graphics/SVG/1.1/DTD/svg11.dtd">
<!-- Generated by graphviz version 2.40.1 (20161225.0304)
 -->
<!-- Title: state transitions Pages: 1 -->
<svg width="1744pt" height="810pt"
 viewBox="0.00 0.00 1744.00 810.00" xmlns="http://www.w3.org/2000/svg" xmlns:xlink="http://www.w3.org/1999/xlink">
<g id="graph0" class="graph" transform="scale(1 1) rotate(0) translate(4 806)">
<title>state transitions</title>
<polygon fill="#ffffff" stroke="transparent" points="-4,4 -4,-806 1740,-806 1740,4 -4,4"/>
<g id="clust1" class="cluster state regular">
<title>cluster_next_state</title>
<path fill="none" stroke="#000000" stroke-width="2" d="M20,-8C20,-8 1716,-8 1716,-8 1722,-8 1728,-14 1728,-20 1728,-20 1728,-782 1728,-782 1728,-788 1722,-794 1716,-794 1716,-794 20,-794 20,-794 14,-794 8,-788 8,-782 8,-782 8,-20 8,-20 8,-14 14,-8 20,-8"/>
<text text-anchor="start" x="840.8208" y="-775.2" font-family="Helvetica,sans-Serif" font-size="12.00" fill="#000000">next_state</text>
</g>
<!-- next_state -->
<!-- IDLE -->
<g id="node2" class="node state regular">
<title>IDLE</title>
<polygon fill="#ffffff" fill-opacity="0.003922" stroke="transparent" stroke-width="2" points="704,-756 648,-756 648,-720 704,-720 704,-756"/>
<text text-anchor="start" x="662.6644" y="-734.2" font-family="Helvetica,sans-Serif" font-size="12.00" fill="#000000">IDLE</text>
<path fill="none" stroke="#000000" stroke-width="2" d="M660.3333,-721C660.3333,-721 691.6667,-721 691.6667,-721 697.3333,-721 703,-726.6667 703,-732.3333 703,-732.3333 703,-743.6667 703,-743.6667 703,-749.3333 697.3333,-755 691.6667,-755 691.6667,-755 660.3333,-755 660.3333,-755 654.6667,-755 649,-749.3333 649,-743.6667 649,-743.6667 649,-732.3333 649,-732.3333 649,-726.6667 654.6667,-721 660.3333,-721"/>
</g>
<!-- IDLE&#45;&gt;IDLE -->
<g id="edge4" class="edge transition">
<title>IDLE&#45;&gt;IDLE</title>
<path fill="none" stroke="#000000" d="M704.0183,-742.8247C715.888,-743.1883 726,-741.5801 726,-738 726,-735.5387 721.2205,-734.0094 714.3762,-733.4121"/>
<polygon fill="#000000" stroke="#000000" points="714.0957,-729.9049 704.0183,-733.1753 713.9356,-736.903 714.0957,-729.9049"/>
<text text-anchor="start" x="726" y="-747" font-family="Helvetica,sans-Serif" font-size="10.00" fill="#000000">not (axil_arready_sbd &amp;&amp; axil_arvalid_sbd) &#160;&#160;</text>
<text text-anchor="start" x="726" y="-735" font-family="Helvetica,sans-Serif" font-size="10.00" fill="#000000">not (axil_awready_sbd &amp;&amp; axil_awvalid_sbd &amp;&amp; axil_wready_sbd &amp;&amp; axil_wvalid_sbd) &#160;&#160;</text>
<text text-anchor="start" x="726" y="-723" font-family="Helvetica,sans-Serif" font-size="10.00" fill="#000000">not (axil_awready_sbd &amp;&amp; axil_awvalid_sbd) &#160;&#160;</text>
</g>
<!-- WAIT_FOR_DATA -->
<g id="node3" class="node state regular">
<title>WAIT_FOR_DATA</title>
<polygon fill="#ffffff" fill-opacity="0.003922" stroke="transparent" stroke-width="2" points="1059,-662 937,-662 937,-626 1059,-626 1059,-662"/>
<text text-anchor="start" x="947.6678" y="-640.2" font-family="Helvetica,sans-Serif" font-size="12.00" fill="#000000">WAIT_FOR_DATA</text>
<path fill="none" stroke="#000000" stroke-width="2" d="M949.3333,-627C949.3333,-627 1046.6667,-627 1046.6667,-627 1052.3333,-627 1058,-632.6667 1058,-638.3333 1058,-638.3333 1058,-649.6667 1058,-649.6667 1058,-655.3333 1052.3333,-661 1046.6667,-661 1046.6667,-661 949.3333,-661 949.3333,-661 943.6667,-661 938,-655.3333 938,-649.6667 938,-649.6667 938,-638.3333 938,-638.3333 938,-632.6667 943.6667,-627 949.3333,-627"/>
</g>
<!-- IDLE&#45;&gt;WAIT_FOR_DATA -->
<g id="edge3" class="edge transition">
<title>IDLE&#45;&gt;WAIT_FOR_DATA</title>
<path fill="none" stroke="#000000" d="M704.0121,-729.8226C753.3329,-715.4246 857.0759,-685.1393 927.1676,-664.6778"/>
<polygon fill="#000000" stroke="#000000" points="928.2069,-668.0206 936.8254,-661.8584 926.2452,-661.301 928.2069,-668.0206"/>
<text text-anchor="start" x="876" y="-688" font-family="Helvetica,sans-Serif" font-size="10.00" fill="#000000">axil_awready_sbd &amp;&amp; axil_awvalid_sbd &#160;&#160;</text>
</g>
<!-- READ -->
<g id="node4" class="node state regular">
<title>READ</title>
<polygon fill="#ffffff" fill-opacity="0.003922" stroke="transparent" stroke-width="2" points="96,-662 40,-662 40,-626 96,-626 96,-662"/>
<text text-anchor="start" x="51.3344" y="-640.2" font-family="Helvetica,sans-Serif" font-size="12.00" fill="#000000">READ</text>
<path fill="none" stroke="#000000" stroke-width="2" d="M52.3333,-627C52.3333,-627 83.6667,-627 83.6667,-627 89.3333,-627 95,-632.6667 95,-638.3333 95,-638.3333 95,-649.6667 95,-649.6667 95,-655.3333 89.3333,-661 83.6667,-661 83.6667,-661 52.3333,-661 52.3333,-661 46.6667,-661 41,-655.3333 41,-649.6667 41,-649.6667 41,-638.3333 41,-638.3333 41,-632.6667 46.6667,-627 52.3333,-627"/>
</g>
<!-- IDLE&#45;&gt;READ -->
<g id="edge1" class="edge transition">
<title>IDLE&#45;&gt;READ</title>
<path fill="none" stroke="#000000" d="M647.9438,-734.4769C611.9667,-729.5294 547.9021,-719.2631 494.963,-703 469.093,-695.0526 465.2246,-685.685 439,-679 376.8279,-663.1516 188.288,-650.8512 106.5171,-646.1146"/>
<polygon fill="#000000" stroke="#000000" points="106.3534,-642.5996 96.1698,-645.5227 105.9536,-649.5882 106.3534,-642.5996"/>
<text text-anchor="start" x="494" y="-688" font-family="Helvetica,sans-Serif" font-size="10.00" fill="#000000">axil_arready_sbd &amp;&amp; axil_arvalid_sbd &#160;&#160;</text>
</g>
<!-- WRITE -->
<g id="node5" class="node state regular">
<title>WRITE</title>
<polygon fill="#ffffff" fill-opacity="0.003922" stroke="transparent" stroke-width="2" points="912,-580 852,-580 852,-544 912,-544 912,-580"/>
<text text-anchor="start" x="862.671" y="-558.2" font-family="Helvetica,sans-Serif" font-size="12.00" fill="#000000">WRITE</text>
<path fill="none" stroke="#000000" stroke-width="2" d="M864.3333,-545C864.3333,-545 899.6667,-545 899.6667,-545 905.3333,-545 911,-550.6667 911,-556.3333 911,-556.3333 911,-567.6667 911,-567.6667 911,-573.3333 905.3333,-579 899.6667,-579 899.6667,-579 864.3333,-579 864.3333,-579 858.6667,-579 853,-573.3333 853,-567.6667 853,-567.6667 853,-556.3333 853,-556.3333 853,-550.6667 858.6667,-545 864.3333,-545"/>
</g>
<!-- IDLE&#45;&gt;WRITE -->
<g id="edge2" class="edge transition">
<title>IDLE&#45;&gt;WRITE</title>
<path fill="none" stroke="#000000" d="M679.801,-719.9426C681.4161,-706.8957 681.0315,-689.7453 671,-679 637.2192,-642.8154 593.1465,-699.5798 560.925,-662 550.5104,-649.8535 550.7772,-638.3702 560.925,-626 596.0005,-583.2429 763.2748,-568.5085 841.5,-563.9001"/>
<polygon fill="#000000" stroke="#000000" points="842.1358,-567.37 851.9239,-563.3151 841.7435,-560.381 842.1358,-567.37"/>
<text text-anchor="start" x="560" y="-641" font-family="Helvetica,sans-Serif" font-size="10.00" fill="#000000">axil_awready_sbd &amp;&amp; axil_awvalid_sbd &amp;&amp; axil_wready_sbd &amp;&amp; axil_wvalid_sbd &#160;&#160;</text>
</g>
<!-- WAIT_FOR_DATA&#45;&gt;WAIT_FOR_DATA -->
<g id="edge6" class="edge transition">
<title>WAIT_FOR_DATA&#45;&gt;WAIT_FOR_DATA</title>
<path fill="none" stroke="#000000" d="M1059.1684,-648.7036C1071.8678,-648.2085 1081,-646.6406 1081,-644 1081,-642.1433 1076.4852,-640.817 1069.39,-640.021"/>
<polygon fill="#000000" stroke="#000000" points="1069.3909,-636.5124 1059.1684,-639.2964 1068.8959,-643.4948 1069.3909,-636.5124"/>
<text text-anchor="start" x="1081" y="-641" font-family="Helvetica,sans-Serif" font-size="10.00" fill="#000000">not (axil_wready_sbd &amp;&amp; axil_wvalid_sbd) &#160;&#160;</text>
</g>
<!-- WAIT_FOR_DATA&#45;&gt;WRITE -->
<g id="edge5" class="edge transition">
<title>WAIT_FOR_DATA&#45;&gt;WRITE</title>
<path fill="none" stroke="#000000" d="M972.2558,-625.8015C955.7359,-614.1237 934.097,-598.8272 916.1483,-586.1393"/>
<polygon fill="#000000" stroke="#000000" points="917.8583,-583.062 907.6722,-580.1476 913.8176,-588.778 917.8583,-583.062"/>
<text text-anchor="start" x="947" y="-600" font-family="Helvetica,sans-Serif" font-size="10.00" fill="#000000">axil_wready_sbd &amp;&amp; axil_wvalid_sbd &#160;&#160;</text>
</g>
<!-- READ&#45;&gt;IDLE -->
<g id="edge7" class="edge transition">
<title>READ&#45;&gt;IDLE</title>
<path fill="none" stroke="#000000" d="M66.0457,-662.0255C65.6897,-675.4123 67.7381,-693.0142 79.081,-703 100.0882,-721.4939 509.4197,-733.6693 637.8173,-737.0454"/>
<polygon fill="#000000" stroke="#000000" points="637.8774,-740.548 647.965,-737.3092 638.0594,-733.5504 637.8774,-740.548"/>
<text text-anchor="start" x="79" y="-694" font-family="Helvetica,sans-Serif" font-size="10.00" fill="#000000">axil_rready_sbd &amp;&amp; axil_rvalid_sbd &#160;&#160;</text>
<text text-anchor="start" x="79" y="-682" font-family="Helvetica,sans-Serif" font-size="10.00" fill="#000000">valid_out[0] &amp;&amp; tag == tag_out[0] &#160;&#160;</text>
</g>
<!-- READ&#45;&gt;IDLE -->
<g id="edge9" class="edge transition">
<title>READ&#45;&gt;IDLE</title>
<path fill="none" stroke="#000000" d="M96.2208,-647.7162C139.1378,-653.6836 218.5168,-666.0526 244,-679 258.0438,-686.1353 255.6652,-696.6496 270.081,-703 303.2269,-717.6013 543.1771,-731.2428 637.7917,-736.1135"/>
<polygon fill="#000000" stroke="#000000" points="637.6357,-739.61 647.801,-736.6239 637.9922,-732.6191 637.6357,-739.61"/>
<text text-anchor="start" x="270" y="-694" font-family="Helvetica,sans-Serif" font-size="10.00" fill="#000000">axil_rready_sbd &amp;&amp; axil_rvalid_sbd &#160;&#160;</text>
<text text-anchor="start" x="270" y="-682" font-family="Helvetica,sans-Serif" font-size="10.00" fill="#000000">valid_out[1] &amp;&amp; tag == tag_out[1] &#160;&#160;</text>
</g>
<!-- READ&#45;&gt;READ -->
<g id="edge8" class="edge transition">
<title>READ&#45;&gt;READ</title>
<path fill="none" stroke="#000000" d="M96.0183,-646.4124C107.888,-646.5942 118,-645.79 118,-644 118,-642.7693 113.2205,-642.0047 106.3762,-641.706"/>
<polygon fill="#000000" stroke="#000000" points="106.0576,-638.2023 96.0183,-641.5876 105.9776,-645.2018 106.0576,-638.2023"/>
<text text-anchor="start" x="118" y="-647" font-family="Helvetica,sans-Serif" font-size="10.00" fill="#000000">not (axil_rready_sbd &amp;&amp; axil_rvalid_sbd) &#160;&#160;</text>
<text text-anchor="start" x="118" y="-635" font-family="Helvetica,sans-Serif" font-size="10.00" fill="#000000">valid_out[0] &amp;&amp; tag == tag_out[0] &#160;&#160;</text>
</g>
<!-- READ&#45;&gt;READ -->
<g id="edge10" class="edge transition">
<title>READ&#45;&gt;READ</title>
<path fill="none" stroke="#000000" d="M96.0133,-646.8252C160.3824,-650.2992 305.253,-649.3574 305.253,-644 305.253,-638.9146 174.7223,-637.8079 106.4128,-640.6797"/>
<polygon fill="#000000" stroke="#000000" points="105.8355,-637.2031 96.0133,-641.1748 106.1684,-644.1952 105.8355,-637.2031"/>
<text text-anchor="start" x="305.253" y="-647" font-family="Helvetica,sans-Serif" font-size="10.00" fill="#000000">not (axil_rready_sbd &amp;&amp; axil_rvalid_sbd) &#160;&#160;</text>
<text text-anchor="start" x="305.253" y="-635" font-family="Helvetica,sans-Serif" font-size="10.00" fill="#000000">valid_out[1] &amp;&amp; tag == tag_out[1] &#160;&#160;</text>
</g>
<!-- MEM_READ_REQ -->
<g id="node6" class="node state regular">
<title>MEM_READ_REQ</title>
<polygon fill="#ffffff" fill-opacity="0.003922" stroke="transparent" stroke-width="2" points="572,-310 450,-310 450,-274 572,-274 572,-310"/>
<text text-anchor="start" x="460.6672" y="-288.2" font-family="Helvetica,sans-Serif" font-size="12.00" fill="#000000">MEM_READ_REQ</text>
<path fill="none" stroke="#000000" stroke-width="2" d="M462.3333,-275C462.3333,-275 559.6667,-275 559.6667,-275 565.3333,-275 571,-280.6667 571,-286.3333 571,-286.3333 571,-297.6667 571,-297.6667 571,-303.3333 565.3333,-309 559.6667,-309 559.6667,-309 462.3333,-309 462.3333,-309 456.6667,-309 451,-303.3333 451,-297.6667 451,-297.6667 451,-286.3333 451,-286.3333 451,-280.6667 456.6667,-275 462.3333,-275"/>
</g>
<!-- READ&#45;&gt;MEM_READ_REQ -->
<g id="edge12" class="edge transition">
<title>READ&#45;&gt;MEM_READ_REQ</title>
<path fill="none" stroke="#000000" d="M96.0176,-643.0638C144.7558,-640.666 240,-632.2396 240,-603 240,-603 240,-603 240,-333 240,-312.7792 359.4772,-301.3351 439.7696,-295.9274"/>
<polygon fill="#000000" stroke="#000000" points="440.095,-299.4136 449.8444,-295.2664 439.6367,-292.4287 440.095,-299.4136"/>
<text text-anchor="start" x="240" y="-489" font-family="Helvetica,sans-Serif" font-size="10.00" fill="#000000">not (valid_out[0] &amp;&amp; tag == tag_out[0]) &#160;&#160;</text>
<text text-anchor="start" x="240" y="-477" font-family="Helvetica,sans-Serif" font-size="10.00" fill="#000000">not (valid_out[1] &amp;&amp; tag == tag_out[1]) &#160;&#160;</text>
<text text-anchor="start" x="240" y="-465" font-family="Helvetica,sans-Serif" font-size="10.00" fill="#000000">not (dirty_out[lru_out]) &#160;&#160;</text>
</g>
<!-- MEM_WRITE_REQ -->
<g id="node8" class="node state regular">
<title>MEM_WRITE_REQ</title>
<polygon fill="#ffffff" fill-opacity="0.003922" stroke="transparent" stroke-width="2" points="574.5,-498 447.5,-498 447.5,-462 574.5,-462 574.5,-498"/>
<text text-anchor="start" x="458.5038" y="-476.2" font-family="Helvetica,sans-Serif" font-size="12.00" fill="#000000">MEM_WRITE_REQ</text>
<path fill="none" stroke="#000000" stroke-width="2" d="M459.8333,-463C459.8333,-463 562.1667,-463 562.1667,-463 567.8333,-463 573.5,-468.6667 573.5,-474.3333 573.5,-474.3333 573.5,-485.6667 573.5,-485.6667 573.5,-491.3333 567.8333,-497 562.1667,-497 562.1667,-497 459.8333,-497 459.8333,-497 454.1667,-497 448.5,-491.3333 448.5,-485.6667 448.5,-485.6667 448.5,-474.3333 448.5,-474.3333 448.5,-468.6667 454.1667,-463 459.8333,-463"/>
</g>
<!-- READ&#45;&gt;MEM_WRITE_REQ -->
<g id="edge11" class="edge transition">
<title>READ&#45;&gt;MEM_WRITE_REQ</title>
<path fill="none" stroke="#000000" d="M96.1356,-643.4402C175.9388,-641.4819 398,-633.3094 398,-603 398,-603 398,-603 398,-521 398,-510.3651 415.9102,-501.6997 437.4699,-495.1212"/>
<polygon fill="#000000" stroke="#000000" points="438.577,-498.4451 447.2347,-492.3382 436.6583,-491.7132 438.577,-498.4451"/>
<text text-anchor="start" x="398" y="-559" font-family="Helvetica,sans-Serif" font-size="10.00" fill="#000000">dirty_out[lru_out] &#160;&#160;</text>
</g>
<!-- WRITE&#45;&gt;IDLE -->
<g id="edge13" class="edge transition">
<title>WRITE&#45;&gt;IDLE</title>
<path fill="none" stroke="#000000" d="M912.1735,-563.268C1010.595,-567.6012 1316,-582.6839 1316,-603 1316,-691 1316,-691 1316,-691 1316,-721.335 852.6424,-734.0749 714.4504,-737.2"/>
<polygon fill="#000000" stroke="#000000" points="714.2456,-733.7036 704.3258,-737.4248 714.4011,-740.7018 714.2456,-733.7036"/>
<text text-anchor="start" x="1316" y="-647" font-family="Helvetica,sans-Serif" font-size="10.00" fill="#000000">axil_bready_sbd &amp;&amp; axil_bvalid_sbd &#160;&#160;</text>
<text text-anchor="start" x="1316" y="-635" font-family="Helvetica,sans-Serif" font-size="10.00" fill="#000000">valid_out[0] &amp;&amp; tag == tag_out[0] &#160;&#160;</text>
</g>
<!-- WRITE&#45;&gt;IDLE -->
<g id="edge15" class="edge transition">
<title>WRITE&#45;&gt;IDLE</title>
<path fill="none" stroke="#000000" d="M912.2915,-562.3169C1040.0081,-563.8483 1528,-571.7447 1528,-603 1528,-691 1528,-691 1528,-691 1528,-711.6566 880.9097,-732.0054 714.5952,-736.8943"/>
<polygon fill="#000000" stroke="#000000" points="714.241,-733.4031 704.3476,-737.1938 714.4456,-740.4001 714.241,-733.4031"/>
<text text-anchor="start" x="1528" y="-647" font-family="Helvetica,sans-Serif" font-size="10.00" fill="#000000">axil_bready_sbd &amp;&amp; axil_bvalid_sbd &#160;&#160;</text>
<text text-anchor="start" x="1528" y="-635" font-family="Helvetica,sans-Serif" font-size="10.00" fill="#000000">valid_out[1] &amp;&amp; tag == tag_out[1] &#160;&#160;</text>
</g>
<!-- WRITE&#45;&gt;WRITE -->
<g id="edge14" class="edge transition">
<title>WRITE&#45;&gt;WRITE</title>
<path fill="none" stroke="#000000" d="M912.185,-564.4254C924.0717,-564.5477 934,-563.7393 934,-562 934,-560.8043 929.3073,-560.0485 922.5118,-559.7326"/>
<polygon fill="#000000" stroke="#000000" points="922.2374,-556.2281 912.185,-559.5746 922.1302,-563.2273 922.2374,-556.2281"/>
<text text-anchor="start" x="934" y="-565" font-family="Helvetica,sans-Serif" font-size="10.00" fill="#000000">not (axil_bready_sbd &amp;&amp; axil_bvalid_sbd) &#160;&#160;</text>
<text text-anchor="start" x="934" y="-553" font-family="Helvetica,sans-Serif" font-size="10.00" fill="#000000">valid_out[0] &amp;&amp; tag == tag_out[0] &#160;&#160;</text>
</g>
<!-- WRITE&#45;&gt;WRITE -->
<g id="edge16" class="edge transition">
<title>WRITE&#45;&gt;WRITE</title>
<path fill="none" stroke="#000000" d="M912.2035,-564.8986C979.015,-568.2855 1125.713,-567.3193 1125.713,-562 1125.713,-556.9404 992.9912,-555.8192 922.5353,-558.6364"/>
<polygon fill="#000000" stroke="#000000" points="922.036,-555.1552 912.2035,-559.1014 922.3507,-562.1481 922.036,-555.1552"/>
<text text-anchor="start" x="1125.713" y="-565" font-family="Helvetica,sans-Serif" font-size="10.00" fill="#000000">not (axil_bready_sbd &amp;&amp; axil_bvalid_sbd) &#160;&#160;</text>
<text text-anchor="start" x="1125.713" y="-553" font-family="Helvetica,sans-Serif" font-size="10.00" fill="#000000">valid_out[1] &amp;&amp; tag == tag_out[1] &#160;&#160;</text>
</g>
<!-- WRITE&#45;&gt;MEM_READ_REQ -->
<g id="edge18" class="edge transition">
<title>WRITE&#45;&gt;MEM_READ_REQ</title>
<path fill="none" stroke="#000000" d="M851.7265,-554.1723C835.9882,-548.0866 820,-537.7759 820,-521 820,-521 820,-521 820,-333 820,-309.1365 673.3051,-298.6932 582.065,-294.5057"/>
<polygon fill="#000000" stroke="#000000" points="582.194,-291.0081 572.0485,-294.0607 581.8833,-298.0012 582.194,-291.0081"/>
<text text-anchor="start" x="820" y="-436" font-family="Helvetica,sans-Serif" font-size="10.00" fill="#000000">not (valid_out[0] &amp;&amp; tag == tag_out[0]) &#160;&#160;</text>
<text text-anchor="start" x="820" y="-424" font-family="Helvetica,sans-Serif" font-size="10.00" fill="#000000">not (valid_out[1] &amp;&amp; tag == tag_out[1]) &#160;&#160;</text>
<text text-anchor="start" x="820" y="-412" font-family="Helvetica,sans-Serif" font-size="10.00" fill="#000000">not (dirty_out[lru_out]) &#160;&#160;</text>
</g>
<!-- WRITE&#45;&gt;MEM_WRITE_REQ -->
<g id="edge17" class="edge transition">
<title>WRITE&#45;&gt;MEM_WRITE_REQ</title>
<path fill="none" stroke="#000000" d="M851.9538,-555.3591C794.3017,-542.6166 666.6412,-514.4005 584.932,-496.3408"/>
<polygon fill="#000000" stroke="#000000" points="585.2289,-492.822 574.7092,-494.0813 583.7181,-499.657 585.2289,-492.822"/>
<text text-anchor="start" x="721" y="-518" font-family="Helvetica,sans-Serif" font-size="10.00" fill="#000000">dirty_out[lru_out] &#160;&#160;</text>
</g>
<!-- MEM_AXI_RRESP -->
<g id="node7" class="node state regular">
<title>MEM_AXI_RRESP</title>
<polygon fill="#ffffff" fill-opacity="0.003922" stroke="transparent" stroke-width="2" points="573,-228 449,-228 449,-192 573,-192 573,-228"/>
<text text-anchor="start" x="459.9958" y="-206.2" font-family="Helvetica,sans-Serif" font-size="12.00" fill="#000000">MEM_AXI_RRESP</text>
<path fill="none" stroke="#000000" stroke-width="2" d="M461.3333,-193C461.3333,-193 560.6667,-193 560.6667,-193 566.3333,-193 572,-198.6667 572,-204.3333 572,-204.3333 572,-215.6667 572,-215.6667 572,-221.3333 566.3333,-227 560.6667,-227 560.6667,-227 461.3333,-227 461.3333,-227 455.6667,-227 450,-221.3333 450,-215.6667 450,-215.6667 450,-204.3333 450,-204.3333 450,-198.6667 455.6667,-193 461.3333,-193"/>
</g>
<!-- MEM_READ_REQ&#45;&gt;MEM_AXI_RRESP -->
<g id="edge19" class="edge transition">
<title>MEM_READ_REQ&#45;&gt;MEM_AXI_RRESP</title>
<path fill="none" stroke="#000000" d="M511,-273.8015C511,-263.3976 511,-250.1215 511,-238.3768"/>
<polygon fill="#000000" stroke="#000000" points="514.5001,-238.1476 511,-228.1476 507.5001,-238.1476 514.5001,-238.1476"/>
<text text-anchor="middle" x="512.3895" y="-248" font-family="Helvetica,sans-Serif" font-size="10.00" fill="#000000"> </text>
</g>
<!-- MEM_AXI_RRESP&#45;&gt;MEM_AXI_RRESP -->
<g id="edge22" class="edge transition">
<title>MEM_AXI_RRESP&#45;&gt;MEM_AXI_RRESP</title>
<path fill="none" stroke="#000000" d="M573.2751,-214.689C585.9347,-214.1782 595,-212.6152 595,-210 595,-208.1612 590.5183,-206.8425 583.4566,-206.0441"/>
<polygon fill="#000000" stroke="#000000" points="583.5007,-202.5383 573.2751,-205.311 582.9979,-209.5202 583.5007,-202.5383"/>
<text text-anchor="start" x="595" y="-207" font-family="Helvetica,sans-Serif" font-size="10.00" fill="#000000">not (axil_rready_mng &amp;&amp; axil_rvalid_mng) &#160;&#160;</text>
</g>
<!-- READ_UPDATE -->
<g id="node10" class="node state regular">
<title>READ_UPDATE</title>
<polygon fill="#ffffff" fill-opacity="0.003922" stroke="transparent" stroke-width="2" points="368,-134 258,-134 258,-98 368,-98 368,-134"/>
<text text-anchor="start" x="268.6666" y="-112.2" font-family="Helvetica,sans-Serif" font-size="12.00" fill="#000000">READ_UPDATE</text>
<path fill="none" stroke="#000000" stroke-width="2" d="M270.3333,-99C270.3333,-99 355.6667,-99 355.6667,-99 361.3333,-99 367,-104.6667 367,-110.3333 367,-110.3333 367,-121.6667 367,-121.6667 367,-127.3333 361.3333,-133 355.6667,-133 355.6667,-133 270.3333,-133 270.3333,-133 264.6667,-133 259,-127.3333 259,-121.6667 259,-121.6667 259,-110.3333 259,-110.3333 259,-104.6667 264.6667,-99 270.3333,-99"/>
</g>
<!-- MEM_AXI_RRESP&#45;&gt;READ_UPDATE -->
<g id="edge21" class="edge transition">
<title>MEM_AXI_RRESP&#45;&gt;READ_UPDATE</title>
<path fill="none" stroke="#000000" d="M472.8236,-191.8759C440.7754,-176.661 394.843,-154.8548 360.4368,-138.5205"/>
<polygon fill="#000000" stroke="#000000" points="361.5939,-135.1955 351.0592,-134.0685 358.5918,-141.5191 361.5939,-135.1955"/>
<text text-anchor="start" x="436" y="-166" font-family="Helvetica,sans-Serif" font-size="10.00" fill="#000000">not (r_w) &#160;&#160;</text>
<text text-anchor="start" x="436" y="-154" font-family="Helvetica,sans-Serif" font-size="10.00" fill="#000000">axil_rready_mng &amp;&amp; axil_rvalid_mng &#160;&#160;</text>
</g>
<!-- WRITE_UPDATE -->
<g id="node11" class="node state regular">
<title>WRITE_UPDATE</title>
<polygon fill="#ffffff" fill-opacity="0.003922" stroke="transparent" stroke-width="2" points="1111.5,-134 996.5,-134 996.5,-98 1111.5,-98 1111.5,-134"/>
<text text-anchor="start" x="1007.5032" y="-112.2" font-family="Helvetica,sans-Serif" font-size="12.00" fill="#000000">WRITE_UPDATE</text>
<path fill="none" stroke="#000000" stroke-width="2" d="M1008.8333,-99C1008.8333,-99 1099.1667,-99 1099.1667,-99 1104.8333,-99 1110.5,-104.6667 1110.5,-110.3333 1110.5,-110.3333 1110.5,-121.6667 1110.5,-121.6667 1110.5,-127.3333 1104.8333,-133 1099.1667,-133 1099.1667,-133 1008.8333,-133 1008.8333,-133 1003.1667,-133 997.5,-127.3333 997.5,-121.6667 997.5,-121.6667 997.5,-110.3333 997.5,-110.3333 997.5,-104.6667 1003.1667,-99 1008.8333,-99"/>
</g>
<!-- MEM_AXI_RRESP&#45;&gt;WRITE_UPDATE -->
<g id="edge20" class="edge transition">
<title>MEM_AXI_RRESP&#45;&gt;WRITE_UPDATE</title>
<path fill="none" stroke="#000000" d="M573.0244,-199.2628C675.7324,-181.4828 880.3108,-146.0678 986.5106,-127.6832"/>
<polygon fill="#000000" stroke="#000000" points="987.2178,-131.113 996.4742,-125.9584 986.0237,-124.2156 987.2178,-131.113"/>
<text text-anchor="start" x="849" y="-166" font-family="Helvetica,sans-Serif" font-size="10.00" fill="#000000">r_w &#160;&#160;</text>
<text text-anchor="start" x="849" y="-154" font-family="Helvetica,sans-Serif" font-size="10.00" fill="#000000">axil_rready_mng &amp;&amp; axil_rvalid_mng &#160;&#160;</text>
</g>
<!-- MEM_AXI_BRESP -->
<g id="node9" class="node state regular">
<title>MEM_AXI_BRESP</title>
<polygon fill="#ffffff" fill-opacity="0.003922" stroke="transparent" stroke-width="2" points="572.5,-392 449.5,-392 449.5,-356 572.5,-356 572.5,-392"/>
<text text-anchor="start" x="460.8258" y="-370.2" font-family="Helvetica,sans-Serif" font-size="12.00" fill="#000000">MEM_AXI_BRESP</text>
<path fill="none" stroke="#000000" stroke-width="2" d="M461.8333,-357C461.8333,-357 560.1667,-357 560.1667,-357 565.8333,-357 571.5,-362.6667 571.5,-368.3333 571.5,-368.3333 571.5,-379.6667 571.5,-379.6667 571.5,-385.3333 565.8333,-391 560.1667,-391 560.1667,-391 461.8333,-391 461.8333,-391 456.1667,-391 450.5,-385.3333 450.5,-379.6667 450.5,-379.6667 450.5,-368.3333 450.5,-368.3333 450.5,-362.6667 456.1667,-357 461.8333,-357"/>
</g>
<!-- MEM_WRITE_REQ&#45;&gt;MEM_AXI_BRESP -->
<g id="edge23" class="edge transition">
<title>MEM_WRITE_REQ&#45;&gt;MEM_AXI_BRESP</title>
<path fill="none" stroke="#000000" d="M511,-461.5362C511,-445.1966 511,-421.1 511,-402.3232"/>
<polygon fill="#000000" stroke="#000000" points="514.5001,-402.2522 511,-392.2522 507.5001,-402.2522 514.5001,-402.2522"/>
<text text-anchor="middle" x="512.3895" y="-424" font-family="Helvetica,sans-Serif" font-size="10.00" fill="#000000"> </text>
</g>
<!-- MEM_AXI_BRESP&#45;&gt;MEM_READ_REQ -->
<g id="edge24" class="edge transition">
<title>MEM_AXI_BRESP&#45;&gt;MEM_READ_REQ</title>
<path fill="none" stroke="#000000" d="M511,-355.8015C511,-345.3976 511,-332.1215 511,-320.3768"/>
<polygon fill="#000000" stroke="#000000" points="514.5001,-320.1476 511,-310.1476 507.5001,-320.1476 514.5001,-320.1476"/>
<text text-anchor="start" x="511" y="-330" font-family="Helvetica,sans-Serif" font-size="10.00" fill="#000000">axil_bready_mng &amp;&amp; axil_bvalid_mng &#160;&#160;</text>
</g>
<!-- MEM_AXI_BRESP&#45;&gt;MEM_AXI_BRESP -->
<g id="edge25" class="edge transition">
<title>MEM_AXI_BRESP&#45;&gt;MEM_AXI_BRESP</title>
<path fill="none" stroke="#000000" d="M572.5369,-378.7036C585.3128,-378.2085 594.5,-376.6406 594.5,-374 594.5,-372.1433 589.958,-370.817 582.8201,-370.021"/>
<polygon fill="#000000" stroke="#000000" points="582.7582,-366.508 572.5369,-369.2964 582.2661,-373.4907 582.7582,-366.508"/>
<text text-anchor="start" x="594.5" y="-371" font-family="Helvetica,sans-Serif" font-size="10.00" fill="#000000">not (axil_bready_mng &amp;&amp; axil_bvalid_mng) &#160;&#160;</text>
</g>
<!-- MNG_RREADY -->
<g id="node12" class="node state regular">
<title>MNG_RREADY</title>
<polygon fill="#ffffff" fill-opacity="0.003922" stroke="transparent" stroke-width="2" points="244,-52 138,-52 138,-16 244,-16 244,-52"/>
<text text-anchor="start" x="148.67" y="-30.2" font-family="Helvetica,sans-Serif" font-size="12.00" fill="#000000">MNG_RREADY</text>
<path fill="none" stroke="#000000" stroke-width="2" d="M150.3333,-17C150.3333,-17 231.6667,-17 231.6667,-17 237.3333,-17 243,-22.6667 243,-28.3333 243,-28.3333 243,-39.6667 243,-39.6667 243,-45.3333 237.3333,-51 231.6667,-51 231.6667,-51 150.3333,-51 150.3333,-51 144.6667,-51 139,-45.3333 139,-39.6667 139,-39.6667 139,-28.3333 139,-28.3333 139,-22.6667 144.6667,-17 150.3333,-17"/>
</g>
<!-- READ_UPDATE&#45;&gt;MNG_RREADY -->
<g id="edge26" class="edge transition">
<title>READ_UPDATE&#45;&gt;MNG_RREADY</title>
<path fill="none" stroke="#000000" d="M285.9242,-97.8015C268.3919,-86.0175 245.3774,-70.5487 226.4007,-57.7939"/>
<polygon fill="#000000" stroke="#000000" points="228.252,-54.8212 218.0001,-52.1476 224.3472,-60.6308 228.252,-54.8212"/>
<text text-anchor="middle" x="261.3895" y="-72" font-family="Helvetica,sans-Serif" font-size="10.00" fill="#000000"> </text>
</g>
<!-- MNG_BREADY -->
<g id="node13" class="node state regular">
<title>MNG_BREADY</title>
<polygon fill="#ffffff" fill-opacity="0.003922" stroke="transparent" stroke-width="2" points="1461,-52 1355,-52 1355,-16 1461,-16 1461,-52"/>
<text text-anchor="start" x="1366" y="-30.2" font-family="Helvetica,sans-Serif" font-size="12.00" fill="#000000">MNG_BREADY</text>
<path fill="none" stroke="#000000" stroke-width="2" d="M1367.3333,-17C1367.3333,-17 1448.6667,-17 1448.6667,-17 1454.3333,-17 1460,-22.6667 1460,-28.3333 1460,-28.3333 1460,-39.6667 1460,-39.6667 1460,-45.3333 1454.3333,-51 1448.6667,-51 1448.6667,-51 1367.3333,-51 1367.3333,-51 1361.6667,-51 1356,-45.3333 1356,-39.6667 1356,-39.6667 1356,-28.3333 1356,-28.3333 1356,-22.6667 1361.6667,-17 1367.3333,-17"/>
</g>
<!-- WRITE_UPDATE&#45;&gt;MNG_BREADY -->
<g id="edge27" class="edge transition">
<title>WRITE_UPDATE&#45;&gt;MNG_BREADY</title>
<path fill="none" stroke="#000000" d="M1111.6641,-102.6428C1175.7691,-87.7936 1278.9653,-63.8894 1345.1077,-48.5683"/>
<polygon fill="#000000" stroke="#000000" points="1346.0385,-51.9454 1354.9907,-46.279 1344.4588,-45.126 1346.0385,-51.9454"/>
<text text-anchor="middle" x="1255.3895" y="-72" font-family="Helvetica,sans-Serif" font-size="10.00" fill="#000000"> </text>
</g>
<!-- MNG_RREADY&#45;&gt;IDLE -->
<g id="edge28" class="edge transition">
<title>MNG_RREADY&#45;&gt;IDLE</title>
<path fill="none" stroke="#000000" d="M137.9174,-38.2063C93.7274,-43.2211 38,-53.7565 38,-75 38,-453.5 38,-453.5 38,-453.5 38,-564.9007 -33.5941,-645.7996 62,-703 80.6254,-714.1448 88.4398,-709.4959 110,-712 212.5996,-723.9163 527.7596,-733.7787 637.6917,-736.9378"/>
<polygon fill="#000000" stroke="#000000" points="637.8799,-740.4445 647.9756,-737.2309 638.0794,-733.4473 637.8799,-740.4445"/>
<text text-anchor="start" x="38" y="-371" font-family="Helvetica,sans-Serif" font-size="10.00" fill="#000000">axil_rready_sbd &amp;&amp; axil_rvalid_sbd &#160;&#160;</text>
</g>
<!-- MNG_RREADY&#45;&gt;MNG_RREADY -->
<g id="edge29" class="edge transition">
<title>MNG_RREADY&#45;&gt;MNG_RREADY</title>
<path fill="none" stroke="#000000" d="M244.2553,-38.7786C256.7684,-38.3858 266,-36.793 266,-34 266,-32.0362 261.4361,-30.6657 254.3765,-29.8885"/>
<polygon fill="#000000" stroke="#000000" points="254.4639,-26.3868 244.2553,-29.2214 254.0035,-33.3716 254.4639,-26.3868"/>
<text text-anchor="start" x="266" y="-31" font-family="Helvetica,sans-Serif" font-size="10.00" fill="#000000">not (axil_rready_sbd &amp;&amp; axil_rvalid_sbd) &#160;&#160;</text>
</g>
<!-- MNG_BREADY&#45;&gt;IDLE -->
<g id="edge30" class="edge transition">
<title>MNG_BREADY&#45;&gt;IDLE</title>
<path fill="none" stroke="#000000" d="M1461.2112,-39.1844C1502.2314,-44.7079 1552,-55.4398 1552,-75 1552,-347.5 1552,-347.5 1552,-347.5 1552,-487.8792 1666.8643,-489.8344 1701,-626 1704.8907,-641.5197 1711.0955,-649.5871 1701,-662 1644.5714,-731.3818 1592.6584,-691.2651 1504,-703 1348.3057,-723.6079 856.0043,-734.521 714.4286,-737.2876"/>
<polygon fill="#000000" stroke="#000000" points="714.0203,-733.7947 704.0898,-737.4873 714.1556,-740.7934 714.0203,-733.7947"/>
<text text-anchor="start" x="1556" y="-371" font-family="Helvetica,sans-Serif" font-size="10.00" fill="#000000">axil_bready_sbd &amp;&amp; axil_bvalid_sbd &#160;&#160;</text>
</g>
<!-- MNG_BREADY&#45;&gt;MNG_BREADY -->
<g id="edge31" class="edge transition">
<title>MNG_BREADY&#45;&gt;MNG_BREADY</title>
<path fill="none" stroke="#000000" d="M1461.2553,-38.7786C1473.7684,-38.3858 1483,-36.793 1483,-34 1483,-32.0362 1478.4361,-30.6657 1471.3765,-29.8885"/>
<polygon fill="#000000" stroke="#000000" points="1471.4639,-26.3868 1461.2553,-29.2214 1471.0035,-33.3716 1471.4639,-26.3868"/>
<text text-anchor="start" x="1483" y="-31" font-family="Helvetica,sans-Serif" font-size="10.00" fill="#000000">not (axil_bready_sbd &amp;&amp; axil_bvalid_sbd) &#160;&#160;</text>
</g>
</g>
</svg>
