<?xml version="1.0" encoding="UTF-8" standalone="no"?>
<!DOCTYPE svg PUBLIC "-//W3C//DTD SVG 1.1//EN"
 "http://www.w3.org/Graphics/SVG/1.1/DTD/svg11.dtd">
<!-- Generated by graphviz version 2.40.1 (20161225.0304)
 -->
<!-- Title: state transitions Pages: 1 -->
<svg width="1744pt" height="810pt"
 viewBox="0.00 0.00 1744.00 810.00" xmlns="http://www.w3.org/2000/svg" xmlns:xlink="http://www.w3.org/1999/xlink">
<g id="graph0" class="graph" transform="scale(1 1) rotate(0) translate(4 806)">
<title>state transitions</title>
<polygon fill="#ffffff" stroke="transparent" points="-4,4 -4,-806 1740,-806 1740,4 -4,4"/>
<g id="clust1" class="cluster state regular">
<title>cluster_next_state</title>
<path fill="none" stroke="#000000" stroke-width="2" d="M20,-8C20,-8 1716,-8 1716,-8 1722,-8 1728,-14 1728,-20 1728,-20 1728,-782 1728,-782 1728,-788 1722,-794 1716,-794 1716,-794 20,-794 20,-794 14,-794 8,-788 8,-782 8,-782 8,-20 8,-20 8,-14 14,-8 20,-8"/>
<text text-anchor="start" x="840.8208" y="-775.2" font-family="Helvetica,sans-Serif" font-size="12.00" fill="#000000">next_state</text>
</g>
<!-- next_state -->
<!-- IDLE -->
<g id="node2" class="node state regular">
<title>IDLE</title>
<polygon fill="#ffffff" fill-opacity="0.003922" stroke="transparent" stroke-width="2" points="704,-756 648,-756 648,-720 704,-720 704,-756"/>
<text text-anchor="start" x="662.6644" y="-734.2" font-family="Helvetica,sans-Serif" font-size="12.00" fill="#000000">IDLE</text>
<path fill="none" stroke="#000000" stroke-width="2" d="M660.3333,-721C660.3333,-721 691.6667,-721 691.6667,-721 697.3333,-721 703,-726.6667 703,-732.3333 703,-732.3333 703,-743.6667 703,-743.6667 703,-749.3333 697.3333,-755 691.6667,-755 691.6667,-755 660.3333,-755 660.3333,-755 654.6667,-755 649,-749.3333 649,-743.6667 649,-743.6667 649,-732.3333 649,-732.3333 649,-726.6667 654.6667,-721 660.3333,-721"/>
</g>
<!-- IDLE&#45;&gt;IDLE -->
<g id="edge4" class="edge transition">
<title>IDLE&#45;&gt;IDLE</title>
<path fill="none" stroke="#000000" d="M704.0183,-742.8247C715.888,-743.1883 726,-741.5801 726,-738 726,-735.5387 721.2205,-734.0094 714.3762,-733.4121"/>
<polygon fill="#000000" stroke="#000000" points="714.0957,-729.9049 704.0183,-733.1753 713.9356,-736.903 714.0957,-729.9049"/>
<text text-anchor="start" x="726" y="-747" font-family="Helvetica,sans-Serif" font-size="10.00" fill="#000000">not (axil_arready_sbd &amp;&amp; axil_arvalid_sbd) &#160;&#160;</text>
<text text-anchor="start" x="726" y="-735" font-family="Helvetica,sans-Serif" font-size="10.00" fill="#000000">not (axil_awready_sbd &amp;&amp; axil_awvalid_sbd &amp;&amp; axil_wready_sbd &amp;&amp; axil_wvalid_sbd) &#160;&#160;</text>
<text text-anchor="start" x="726" y="-723" font-family="Helvetica,sans-Serif" font-size="10.00" fill="#000000">not (axil_awready_sbd &amp;&amp; axil_awvalid_sbd) &#160;&#160;</text>
</g>
<!-- WAIT_FOR_DATA -->
<g id="node3" class="node state regular">
<title>WAIT_FOR_DATA</title>
<polygon fill="#ffffff" fill-opacity="0.003922" stroke="transparent" stroke-width="2" points="1059,-662 937,-662 937,-626 1059,-626 1059,-662"/>
<text text-anchor="start" x="947.6678" y="-640.2" font-family="Helvetica,sans-Serif" font-size="12.00" fill="#000000">WAIT_FOR_DATA</text>
<path fill="none" stroke="#000000" stroke-width="2" d="M949.3333,-627C949.3333,-627 1046.6667,-627 1046.6667,-627 1052.3333,-627 1058,-632.6667 1058,-638.3333 1058,-638.3333 1058,-649.6667 1058,-649.6667 1058,-655.3333 1052.3333,-661 1046.6667,-661 1046.6667,-661 949.3333,-661 949.3333,-661 943.6667,-661 938,-655.3333 938,-649.6667 938,-649.6667 938,-638.3333 938,-638.3333 938,-632.6667 943.6667,-627 949.3333,-627"/>
</g>
<!-- IDLE&#45;&gt;WAIT_FOR_DATA -->
<g id="edge3" class="edge transition">
<title>IDLE&#45;&gt;WAIT_FOR_DATA</title>
<path fill="none" stroke="#000000" d="M704.0121,-729.8226C753.3329,-715.4246 857.0759,-685.1393 927.1676,-664.6778"/>
<polygon fill="#000000" stroke="#000000" points="928.2069,-668.0206 936.8254,-661.8584 926.2452,-661.301 928.2069,-668.0206"/>
<text text-anchor="start" x="876" y="-688" font-family="Helvetica,sans-Serif" font-size="10.00" fill="#000000">axil_awready_sbd &amp;&amp; axil_awvalid_sbd &#160;&#160;</text>
</g>
<!-- READ -->
<g id="node4" class="node state regular">
<title>READ</title>
<polygon fill="#ffffff" fill-opacity="0.003922" stroke="transparent" stroke-width="2" points="96,-662 40,-662 40,-626 96,-626 96,-662"/>
<text text-anchor="start" x="51.3344" y="-640.2" font-family="Helvetica,sans-Serif" font-size="12.00" fill="#000000">READ</text>
<path fill="none" stroke="#000000" stroke-width="2" d="M52.3333,-627C52.3333,-627 83.6667,-627 83.6667,-627 89.3333,-627 95,-632.6667 95,-638.3333 95,-638.3333 95,-649.6667 95,-649.6667 95,-655.3333 89.3333,-661 83.6667,-661 83.6667,-661 52.3333,-661 52.3333,-661 46.6667,-661 41,-655.3333 41,-649.6667 41,-649.6667 41,-638.3333 41,-638.3333 41,-632.6667 46.6667,-627 52.3333,-627"/>
</g>
<!-- IDLE&#45;&gt;READ -->
<g id="edge1" class="edge transition">
<title>IDLE&#45;&gt;READ</title>
<path fill="none" stroke="#000000" d="M647.9438,-734.4769C611.9667,-729.5294 547.9021,-719.2631 494.963,-703 469.093,-695.0526 465.2246,-685.685 439,-679 376.8279,-663.1516 188.288,-650.8512 106.5171,-646.1146"/>
<polygon fill="#000000" stroke="#000000" points="106.3534,-642.5996 96.1698,-645.5227 105.9536,-649.5882 106.3534,-642.5996"/>
<text text-anchor="start" x="494" y="-688" font-family="Helvetica,sans-Serif" font-size="10.00" fill="#000000">axil_arready_sbd &amp;&amp; axil_arvalid_sbd &#160;&#160;</text>
</g>
<!-- WRITE -->
<g id="node5" class="node state regular">
<title>WRITE</title>
<polygon fill="#ffffff" fill-opacity="0.003922" stroke="transparent" stroke-width="2" points="1028,-580 968,-580 968,-544 1028,-544 1028,-580"/>
<text text-anchor="start" x="978.671" y="-558.2" font-family="Helvetica,sans-Serif" font-size="12.00" fill="#000000">WRITE</text>
<path fill="none" stroke="#000000" stroke-width="2" d="M980.3333,-545C980.3333,-545 1015.6667,-545 1015.6667,-545 1021.3333,-545 1027,-550.6667 1027,-556.3333 1027,-556.3333 1027,-567.6667 1027,-567.6667 1027,-573.3333 1021.3333,-579 1015.6667,-579 1015.6667,-579 980.3333,-579 980.3333,-579 974.6667,-579 969,-573.3333 969,-567.6667 969,-567.6667 969,-556.3333 969,-556.3333 969,-550.6667 974.6667,-545 980.3333,-545"/>
</g>
<!-- IDLE&#45;&gt;WRITE -->
<g id="edge2" class="edge transition">
<title>IDLE&#45;&gt;WRITE</title>
<path fill="none" stroke="#000000" d="M679.801,-719.9426C681.4161,-706.8957 681.0315,-689.7453 671,-679 637.2192,-642.8154 593.1465,-699.5798 560.925,-662 550.5104,-649.8535 550.4629,-638.1056 560.925,-626 586.7715,-596.0932 854.4685,-572.8476 957.704,-564.9312"/>
<polygon fill="#000000" stroke="#000000" points="958.0352,-568.4163 967.742,-564.1702 957.506,-561.4363 958.0352,-568.4163"/>
<text text-anchor="start" x="560" y="-641" font-family="Helvetica,sans-Serif" font-size="10.00" fill="#000000">axil_awready_sbd &amp;&amp; axil_awvalid_sbd &amp;&amp; axil_wready_sbd &amp;&amp; axil_wvalid_sbd &#160;&#160;</text>
</g>
<!-- WAIT_FOR_DATA&#45;&gt;WAIT_FOR_DATA -->
<g id="edge6" class="edge transition">
<title>WAIT_FOR_DATA&#45;&gt;WAIT_FOR_DATA</title>
<path fill="none" stroke="#000000" d="M1059.1684,-648.7036C1071.8678,-648.2085 1081,-646.6406 1081,-644 1081,-642.1433 1076.4852,-640.817 1069.39,-640.021"/>
<polygon fill="#000000" stroke="#000000" points="1069.3909,-636.5124 1059.1684,-639.2964 1068.8959,-643.4948 1069.3909,-636.5124"/>
<text text-anchor="start" x="1081" y="-641" font-family="Helvetica,sans-Serif" font-size="10.00" fill="#000000">not (axil_wready_sbd &amp;&amp; axil_wvalid_sbd) &#160;&#160;</text>
</g>
<!-- WAIT_FOR_DATA&#45;&gt;WRITE -->
<g id="edge5" class="edge transition">
<title>WAIT_FOR_DATA&#45;&gt;WRITE</title>
<path fill="none" stroke="#000000" d="M998,-625.8015C998,-615.3976 998,-602.1215 998,-590.3768"/>
<polygon fill="#000000" stroke="#000000" points="1001.5001,-590.1476 998,-580.1476 994.5001,-590.1476 1001.5001,-590.1476"/>
<text text-anchor="start" x="998" y="-600" font-family="Helvetica,sans-Serif" font-size="10.00" fill="#000000">axil_wready_sbd &amp;&amp; axil_wvalid_sbd &#160;&#160;</text>
</g>
<!-- READ&#45;&gt;IDLE -->
<g id="edge7" class="edge transition">
<title>READ&#45;&gt;IDLE</title>
<path fill="none" stroke="#000000" d="M66.0457,-662.0255C65.6897,-675.4123 67.7381,-693.0142 79.081,-703 100.0882,-721.4939 509.4197,-733.6693 637.8173,-737.0454"/>
<polygon fill="#000000" stroke="#000000" points="637.8774,-740.548 647.965,-737.3092 638.0594,-733.5504 637.8774,-740.548"/>
<text text-anchor="start" x="79" y="-694" font-family="Helvetica,sans-Serif" font-size="10.00" fill="#000000">axil_rready_sbd &amp;&amp; axil_rvalid_sbd &#160;&#160;</text>
<text text-anchor="start" x="79" y="-682" font-family="Helvetica,sans-Serif" font-size="10.00" fill="#000000">valid_out[0] &amp;&amp; tag == tag_out[0] &#160;&#160;</text>
</g>
<!-- READ&#45;&gt;IDLE -->
<g id="edge9" class="edge transition">
<title>READ&#45;&gt;IDLE</title>
<path fill="none" stroke="#000000" d="M96.2208,-647.7162C139.1378,-653.6836 218.5168,-666.0526 244,-679 258.0438,-686.1353 255.6652,-696.6496 270.081,-703 303.2269,-717.6013 543.1771,-731.2428 637.7917,-736.1135"/>
<polygon fill="#000000" stroke="#000000" points="637.6357,-739.61 647.801,-736.6239 637.9922,-732.6191 637.6357,-739.61"/>
<text text-anchor="start" x="270" y="-694" font-family="Helvetica,sans-Serif" font-size="10.00" fill="#000000">axil_rready_sbd &amp;&amp; axil_rvalid_sbd &#160;&#160;</text>
<text text-anchor="start" x="270" y="-682" font-family="Helvetica,sans-Serif" font-size="10.00" fill="#000000">valid_out[1] &amp;&amp; tag == tag_out[1] &#160;&#160;</text>
</g>
<!-- READ&#45;&gt;READ -->
<g id="edge8" class="edge transition">
<title>READ&#45;&gt;READ</title>
<path fill="none" stroke="#000000" d="M96.0183,-646.4124C107.888,-646.5942 118,-645.79 118,-644 118,-642.7693 113.2205,-642.0047 106.3762,-641.706"/>
<polygon fill="#000000" stroke="#000000" points="106.0576,-638.2023 96.0183,-641.5876 105.9776,-645.2018 106.0576,-638.2023"/>
<text text-anchor="start" x="118" y="-647" font-family="Helvetica,sans-Serif" font-size="10.00" fill="#000000">not (axil_rready_sbd &amp;&amp; axil_rvalid_sbd) &#160;&#160;</text>
<text text-anchor="start" x="118" y="-635" font-family="Helvetica,sans-Serif" font-size="10.00" fill="#000000">valid_out[0] &amp;&amp; tag == tag_out[0] &#160;&#160;</text>
</g>
<!-- READ&#45;&gt;READ -->
<g id="edge10" class="edge transition">
<title>READ&#45;&gt;READ</title>
<path fill="none" stroke="#000000" d="M96.0133,-646.8252C160.3824,-650.2992 305.253,-649.3574 305.253,-644 305.253,-638.9146 174.7223,-637.8079 106.4128,-640.6797"/>
<polygon fill="#000000" stroke="#000000" points="105.8355,-637.2031 96.0133,-641.1748 106.1684,-644.1952 105.8355,-637.2031"/>
<text text-anchor="start" x="305.253" y="-647" font-family="Helvetica,sans-Serif" font-size="10.00" fill="#000000">not (axil_rready_sbd &amp;&amp; axil_rvalid_sbd) &#160;&#160;</text>
<text text-anchor="start" x="305.253" y="-635" font-family="Helvetica,sans-Serif" font-size="10.00" fill="#000000">valid_out[1] &amp;&amp; tag == tag_out[1] &#160;&#160;</text>
</g>
<!-- MEM_READ_REQ -->
<g id="node6" class="node state regular">
<title>MEM_READ_REQ</title>
<polygon fill="#ffffff" fill-opacity="0.003922" stroke="transparent" stroke-width="2" points="550,-310 428,-310 428,-274 550,-274 550,-310"/>
<text text-anchor="start" x="438.6672" y="-288.2" font-family="Helvetica,sans-Serif" font-size="12.00" fill="#000000">MEM_READ_REQ</text>
<path fill="none" stroke="#000000" stroke-width="2" d="M440.3333,-275C440.3333,-275 537.6667,-275 537.6667,-275 543.3333,-275 549,-280.6667 549,-286.3333 549,-286.3333 549,-297.6667 549,-297.6667 549,-303.3333 543.3333,-309 537.6667,-309 537.6667,-309 440.3333,-309 440.3333,-309 434.6667,-309 429,-303.3333 429,-297.6667 429,-297.6667 429,-286.3333 429,-286.3333 429,-280.6667 434.6667,-275 440.3333,-275"/>
</g>
<!-- READ&#45;&gt;MEM_READ_REQ -->
<g id="edge12" class="edge transition">
<title>READ&#45;&gt;MEM_READ_REQ</title>
<path fill="none" stroke="#000000" d="M96.0685,-642.4106C141.2272,-639.0758 225,-629.3399 225,-603 225,-603 225,-603 225,-333 225,-313.4685 339.2882,-301.8895 417.4708,-296.2536"/>
<polygon fill="#000000" stroke="#000000" points="418.0394,-299.7224 427.7695,-295.5302 417.5488,-292.7396 418.0394,-299.7224"/>
<text text-anchor="start" x="225" y="-489" font-family="Helvetica,sans-Serif" font-size="10.00" fill="#000000">not (valid_out[0] &amp;&amp; tag == tag_out[0]) &#160;&#160;</text>
<text text-anchor="start" x="225" y="-477" font-family="Helvetica,sans-Serif" font-size="10.00" fill="#000000">not (valid_out[1] &amp;&amp; tag == tag_out[1]) &#160;&#160;</text>
<text text-anchor="start" x="225" y="-465" font-family="Helvetica,sans-Serif" font-size="10.00" fill="#000000">not (dirty_out[lru_out]) &#160;&#160;</text>
</g>
<!-- MEM_WRITE_REQ -->
<g id="node8" class="node state regular">
<title>MEM_WRITE_REQ</title>
<polygon fill="#ffffff" fill-opacity="0.003922" stroke="transparent" stroke-width="2" points="552.5,-498 425.5,-498 425.5,-462 552.5,-462 552.5,-498"/>
<text text-anchor="start" x="436.5038" y="-476.2" font-family="Helvetica,sans-Serif" font-size="12.00" fill="#000000">MEM_WRITE_REQ</text>
<path fill="none" stroke="#000000" stroke-width="2" d="M437.8333,-463C437.8333,-463 540.1667,-463 540.1667,-463 545.8333,-463 551.5,-468.6667 551.5,-474.3333 551.5,-474.3333 551.5,-485.6667 551.5,-485.6667 551.5,-491.3333 545.8333,-497 540.1667,-497 540.1667,-497 437.8333,-497 437.8333,-497 432.1667,-497 426.5,-491.3333 426.5,-485.6667 426.5,-485.6667 426.5,-474.3333 426.5,-474.3333 426.5,-468.6667 432.1667,-463 437.8333,-463"/>
</g>
<!-- READ&#45;&gt;MEM_WRITE_REQ -->
<g id="edge11" class="edge transition">
<title>READ&#45;&gt;MEM_WRITE_REQ</title>
<path fill="none" stroke="#000000" d="M96.0572,-643.2119C172.3665,-640.6978 378,-631.2977 378,-603 378,-603 378,-603 378,-521 378,-510.7118 394.9916,-502.198 415.6787,-495.645"/>
<polygon fill="#000000" stroke="#000000" points="416.7982,-498.9639 425.396,-492.7728 414.814,-492.251 416.7982,-498.9639"/>
<text text-anchor="start" x="378" y="-559" font-family="Helvetica,sans-Serif" font-size="10.00" fill="#000000">dirty_out[lru_out] &#160;&#160;</text>
</g>
<!-- WRITE&#45;&gt;IDLE -->
<g id="edge13" class="edge transition">
<title>WRITE&#45;&gt;IDLE</title>
<path fill="none" stroke="#000000" d="M1028.2034,-562.7565C1107.5815,-565.1438 1316,-574.1584 1316,-603 1316,-691 1316,-691 1316,-691 1316,-721.335 852.6424,-734.0749 714.4504,-737.2"/>
<polygon fill="#000000" stroke="#000000" points="714.2456,-733.7036 704.3258,-737.4248 714.4011,-740.7018 714.2456,-733.7036"/>
<text text-anchor="start" x="1316" y="-647" font-family="Helvetica,sans-Serif" font-size="10.00" fill="#000000">axil_bready_sbd &amp;&amp; axil_bvalid_sbd &#160;&#160;</text>
<text text-anchor="start" x="1316" y="-635" font-family="Helvetica,sans-Serif" font-size="10.00" fill="#000000">valid_out[0] &amp;&amp; tag == tag_out[0] &#160;&#160;</text>
</g>
<!-- WRITE&#45;&gt;IDLE -->
<g id="edge15" class="edge transition">
<title>WRITE&#45;&gt;IDLE</title>
<path fill="none" stroke="#000000" d="M1028.0137,-562.7386C1140.1318,-565.6922 1528,-577.7359 1528,-603 1528,-691 1528,-691 1528,-691 1528,-711.6566 880.9097,-732.0054 714.5952,-736.8943"/>
<polygon fill="#000000" stroke="#000000" points="714.241,-733.4031 704.3476,-737.1938 714.4456,-740.4001 714.241,-733.4031"/>
<text text-anchor="start" x="1528" y="-647" font-family="Helvetica,sans-Serif" font-size="10.00" fill="#000000">axil_bready_sbd &amp;&amp; axil_bvalid_sbd &#160;&#160;</text>
<text text-anchor="start" x="1528" y="-635" font-family="Helvetica,sans-Serif" font-size="10.00" fill="#000000">valid_out[1] &amp;&amp; tag == tag_out[1] &#160;&#160;</text>
</g>
<!-- WRITE&#45;&gt;WRITE -->
<g id="edge14" class="edge transition">
<title>WRITE&#45;&gt;WRITE</title>
<path fill="none" stroke="#000000" d="M1028.185,-564.4254C1040.0717,-564.5477 1050,-563.7393 1050,-562 1050,-560.8043 1045.3073,-560.0485 1038.5118,-559.7326"/>
<polygon fill="#000000" stroke="#000000" points="1038.2374,-556.2281 1028.185,-559.5746 1038.1302,-563.2273 1038.2374,-556.2281"/>
<text text-anchor="start" x="1050" y="-565" font-family="Helvetica,sans-Serif" font-size="10.00" fill="#000000">not (axil_bready_sbd &amp;&amp; axil_bvalid_sbd) &#160;&#160;</text>
<text text-anchor="start" x="1050" y="-553" font-family="Helvetica,sans-Serif" font-size="10.00" fill="#000000">valid_out[0] &amp;&amp; tag == tag_out[0] &#160;&#160;</text>
</g>
<!-- WRITE&#45;&gt;WRITE -->
<g id="edge16" class="edge transition">
<title>WRITE&#45;&gt;WRITE</title>
<path fill="none" stroke="#000000" d="M1028.2035,-564.8986C1095.015,-568.2855 1241.713,-567.3193 1241.713,-562 1241.713,-556.9404 1108.9912,-555.8192 1038.5353,-558.6364"/>
<polygon fill="#000000" stroke="#000000" points="1038.036,-555.1552 1028.2035,-559.1014 1038.3507,-562.1481 1038.036,-555.1552"/>
<text text-anchor="start" x="1241.713" y="-565" font-family="Helvetica,sans-Serif" font-size="10.00" fill="#000000">not (axil_bready_sbd &amp;&amp; axil_bvalid_sbd) &#160;&#160;</text>
<text text-anchor="start" x="1241.713" y="-553" font-family="Helvetica,sans-Serif" font-size="10.00" fill="#000000">valid_out[1] &amp;&amp; tag == tag_out[1] &#160;&#160;</text>
</g>
<!-- WRITE&#45;&gt;MEM_READ_REQ -->
<g id="edge18" class="edge transition">
<title>WRITE&#45;&gt;MEM_READ_REQ</title>
<path fill="none" stroke="#000000" d="M996.722,-543.6406C996.3301,-536.5679 996,-528.4116 996,-521 996,-521 996,-521 996,-333 996,-311.4081 700.0026,-298.8755 560.3404,-294.1639"/>
<polygon fill="#000000" stroke="#000000" points="560.267,-290.6596 550.156,-293.8249 560.034,-297.6557 560.267,-290.6596"/>
<text text-anchor="start" x="996" y="-436" font-family="Helvetica,sans-Serif" font-size="10.00" fill="#000000">not (valid_out[0] &amp;&amp; tag == tag_out[0]) &#160;&#160;</text>
<text text-anchor="start" x="996" y="-424" font-family="Helvetica,sans-Serif" font-size="10.00" fill="#000000">not (valid_out[1] &amp;&amp; tag == tag_out[1]) &#160;&#160;</text>
<text text-anchor="start" x="996" y="-412" font-family="Helvetica,sans-Serif" font-size="10.00" fill="#000000">not (dirty_out[lru_out]) &#160;&#160;</text>
</g>
<!-- WRITE&#45;&gt;MEM_WRITE_REQ -->
<g id="edge17" class="edge transition">
<title>WRITE&#45;&gt;MEM_WRITE_REQ</title>
<path fill="none" stroke="#000000" d="M967.6841,-557.1161C888.9468,-544.4315 676.2127,-510.16 562.7009,-491.8732"/>
<polygon fill="#000000" stroke="#000000" points="563.1302,-488.3973 552.7008,-490.2622 562.0168,-495.3082 563.1302,-488.3973"/>
<text text-anchor="start" x="777" y="-518" font-family="Helvetica,sans-Serif" font-size="10.00" fill="#000000">dirty_out[lru_out] &#160;&#160;</text>
</g>
<!-- MEM_READ_REQ&#45;&gt;MEM_READ_REQ -->
<g id="edge20" class="edge transition">
<title>MEM_READ_REQ&#45;&gt;MEM_READ_REQ</title>
<path fill="none" stroke="#000000" d="M550.1684,-296.7036C562.8678,-296.2085 572,-294.6406 572,-292 572,-290.1433 567.4852,-288.817 560.39,-288.021"/>
<polygon fill="#000000" stroke="#000000" points="560.3909,-284.5124 550.1684,-287.2964 559.8959,-291.4948 560.3909,-284.5124"/>
<text text-anchor="start" x="572" y="-289" font-family="Helvetica,sans-Serif" font-size="10.00" fill="#000000">not (axil_arvalid_mng &amp;&amp; axil_arready_mng) &#160;&#160;</text>
</g>
<!-- MEM_AXI_RRESP -->
<g id="node7" class="node state regular">
<title>MEM_AXI_RRESP</title>
<polygon fill="#ffffff" fill-opacity="0.003922" stroke="transparent" stroke-width="2" points="551,-228 427,-228 427,-192 551,-192 551,-228"/>
<text text-anchor="start" x="437.9958" y="-206.2" font-family="Helvetica,sans-Serif" font-size="12.00" fill="#000000">MEM_AXI_RRESP</text>
<path fill="none" stroke="#000000" stroke-width="2" d="M439.3333,-193C439.3333,-193 538.6667,-193 538.6667,-193 544.3333,-193 550,-198.6667 550,-204.3333 550,-204.3333 550,-215.6667 550,-215.6667 550,-221.3333 544.3333,-227 538.6667,-227 538.6667,-227 439.3333,-227 439.3333,-227 433.6667,-227 428,-221.3333 428,-215.6667 428,-215.6667 428,-204.3333 428,-204.3333 428,-198.6667 433.6667,-193 439.3333,-193"/>
</g>
<!-- MEM_READ_REQ&#45;&gt;MEM_AXI_RRESP -->
<g id="edge19" class="edge transition">
<title>MEM_READ_REQ&#45;&gt;MEM_AXI_RRESP</title>
<path fill="none" stroke="#000000" d="M489,-273.8015C489,-263.3976 489,-250.1215 489,-238.3768"/>
<polygon fill="#000000" stroke="#000000" points="492.5001,-238.1476 489,-228.1476 485.5001,-238.1476 492.5001,-238.1476"/>
<text text-anchor="start" x="489" y="-248" font-family="Helvetica,sans-Serif" font-size="10.00" fill="#000000">axil_arvalid_mng &amp;&amp; axil_arready_mng &#160;&#160;</text>
</g>
<!-- MEM_AXI_RRESP&#45;&gt;MEM_AXI_RRESP -->
<g id="edge23" class="edge transition">
<title>MEM_AXI_RRESP&#45;&gt;MEM_AXI_RRESP</title>
<path fill="none" stroke="#000000" d="M551.2751,-214.689C563.9347,-214.1782 573,-212.6152 573,-210 573,-208.1612 568.5183,-206.8425 561.4566,-206.0441"/>
<polygon fill="#000000" stroke="#000000" points="561.5007,-202.5383 551.2751,-205.311 560.9979,-209.5202 561.5007,-202.5383"/>
<text text-anchor="start" x="573" y="-207" font-family="Helvetica,sans-Serif" font-size="10.00" fill="#000000">not (axil_rready_mng &amp;&amp; axil_rvalid_mng) &#160;&#160;</text>
</g>
<!-- READ_UPDATE -->
<g id="node10" class="node state regular">
<title>READ_UPDATE</title>
<polygon fill="#ffffff" fill-opacity="0.003922" stroke="transparent" stroke-width="2" points="398,-134 288,-134 288,-98 398,-98 398,-134"/>
<text text-anchor="start" x="298.6666" y="-112.2" font-family="Helvetica,sans-Serif" font-size="12.00" fill="#000000">READ_UPDATE</text>
<path fill="none" stroke="#000000" stroke-width="2" d="M300.3333,-99C300.3333,-99 385.6667,-99 385.6667,-99 391.3333,-99 397,-104.6667 397,-110.3333 397,-110.3333 397,-121.6667 397,-121.6667 397,-127.3333 391.3333,-133 385.6667,-133 385.6667,-133 300.3333,-133 300.3333,-133 294.6667,-133 289,-127.3333 289,-121.6667 289,-121.6667 289,-110.3333 289,-110.3333 289,-104.6667 294.6667,-99 300.3333,-99"/>
</g>
<!-- MEM_AXI_RRESP&#45;&gt;READ_UPDATE -->
<g id="edge22" class="edge transition">
<title>MEM_AXI_RRESP&#45;&gt;READ_UPDATE</title>
<path fill="none" stroke="#000000" d="M460.8497,-191.8759C437.7232,-176.9861 404.7916,-155.7836 379.6164,-139.5749"/>
<polygon fill="#000000" stroke="#000000" points="381.3666,-136.5391 371.0638,-134.0685 377.5772,-142.4248 381.3666,-136.5391"/>
<text text-anchor="start" x="434" y="-166" font-family="Helvetica,sans-Serif" font-size="10.00" fill="#000000">not (r_w) &#160;&#160;</text>
<text text-anchor="start" x="434" y="-154" font-family="Helvetica,sans-Serif" font-size="10.00" fill="#000000">axil_rready_mng &amp;&amp; axil_rvalid_mng &#160;&#160;</text>
</g>
<!-- WRITE_UPDATE -->
<g id="node11" class="node state regular">
<title>WRITE_UPDATE</title>
<polygon fill="#ffffff" fill-opacity="0.003922" stroke="transparent" stroke-width="2" points="1274.5,-134 1159.5,-134 1159.5,-98 1274.5,-98 1274.5,-134"/>
<text text-anchor="start" x="1170.5032" y="-112.2" font-family="Helvetica,sans-Serif" font-size="12.00" fill="#000000">WRITE_UPDATE</text>
<path fill="none" stroke="#000000" stroke-width="2" d="M1171.8333,-99C1171.8333,-99 1262.1667,-99 1262.1667,-99 1267.8333,-99 1273.5,-104.6667 1273.5,-110.3333 1273.5,-110.3333 1273.5,-121.6667 1273.5,-121.6667 1273.5,-127.3333 1267.8333,-133 1262.1667,-133 1262.1667,-133 1171.8333,-133 1171.8333,-133 1166.1667,-133 1160.5,-127.3333 1160.5,-121.6667 1160.5,-121.6667 1160.5,-110.3333 1160.5,-110.3333 1160.5,-104.6667 1166.1667,-99 1171.8333,-99"/>
</g>
<!-- MEM_AXI_RRESP&#45;&gt;WRITE_UPDATE -->
<g id="edge21" class="edge transition">
<title>MEM_AXI_RRESP&#45;&gt;WRITE_UPDATE</title>
<path fill="none" stroke="#000000" d="M551.0689,-201.9856C686.5924,-184.4867 1008.0881,-142.9749 1148.924,-124.79"/>
<polygon fill="#000000" stroke="#000000" points="1149.6827,-128.2212 1159.1522,-123.4694 1148.7863,-121.2788 1149.6827,-128.2212"/>
<text text-anchor="start" x="943" y="-166" font-family="Helvetica,sans-Serif" font-size="10.00" fill="#000000">r_w &#160;&#160;</text>
<text text-anchor="start" x="943" y="-154" font-family="Helvetica,sans-Serif" font-size="10.00" fill="#000000">axil_rready_mng &amp;&amp; axil_rvalid_mng &#160;&#160;</text>
</g>
<!-- MEM_WRITE_REQ&#45;&gt;MEM_WRITE_REQ -->
<g id="edge25" class="edge transition">
<title>MEM_WRITE_REQ&#45;&gt;MEM_WRITE_REQ</title>
<path fill="none" stroke="#000000" d="M552.7615,-484.6739C565.4511,-484.1478 574.5,-482.5898 574.5,-480 574.5,-478.179 570.0264,-476.8682 562.959,-476.0675"/>
<polygon fill="#000000" stroke="#000000" points="562.9889,-472.5605 552.7615,-475.3261 562.4813,-479.5421 562.9889,-472.5605"/>
<text text-anchor="start" x="574.5" y="-477" font-family="Helvetica,sans-Serif" font-size="10.00" fill="#000000">not (axil_awready_mng &amp;&amp; axil_awvalid_mng &amp;&amp; axil_wready_mng &amp;&amp; axil_wvalid_mng) &#160;&#160;</text>
</g>
<!-- MEM_AXI_BRESP -->
<g id="node9" class="node state regular">
<title>MEM_AXI_BRESP</title>
<polygon fill="#ffffff" fill-opacity="0.003922" stroke="transparent" stroke-width="2" points="550.5,-392 427.5,-392 427.5,-356 550.5,-356 550.5,-392"/>
<text text-anchor="start" x="438.8258" y="-370.2" font-family="Helvetica,sans-Serif" font-size="12.00" fill="#000000">MEM_AXI_BRESP</text>
<path fill="none" stroke="#000000" stroke-width="2" d="M439.8333,-357C439.8333,-357 538.1667,-357 538.1667,-357 543.8333,-357 549.5,-362.6667 549.5,-368.3333 549.5,-368.3333 549.5,-379.6667 549.5,-379.6667 549.5,-385.3333 543.8333,-391 538.1667,-391 538.1667,-391 439.8333,-391 439.8333,-391 434.1667,-391 428.5,-385.3333 428.5,-379.6667 428.5,-379.6667 428.5,-368.3333 428.5,-368.3333 428.5,-362.6667 434.1667,-357 439.8333,-357"/>
</g>
<!-- MEM_WRITE_REQ&#45;&gt;MEM_AXI_BRESP -->
<g id="edge24" class="edge transition">
<title>MEM_WRITE_REQ&#45;&gt;MEM_AXI_BRESP</title>
<path fill="none" stroke="#000000" d="M489,-461.5362C489,-445.1966 489,-421.1 489,-402.3232"/>
<polygon fill="#000000" stroke="#000000" points="492.5001,-402.2522 489,-392.2522 485.5001,-402.2522 492.5001,-402.2522"/>
<text text-anchor="start" x="489" y="-424" font-family="Helvetica,sans-Serif" font-size="10.00" fill="#000000">axil_awready_mng &amp;&amp; axil_awvalid_mng &amp;&amp; axil_wready_mng &amp;&amp; axil_wvalid_mng &#160;&#160;</text>
</g>
<!-- MEM_AXI_BRESP&#45;&gt;MEM_READ_REQ -->
<g id="edge26" class="edge transition">
<title>MEM_AXI_BRESP&#45;&gt;MEM_READ_REQ</title>
<path fill="none" stroke="#000000" d="M489,-355.8015C489,-345.3976 489,-332.1215 489,-320.3768"/>
<polygon fill="#000000" stroke="#000000" points="492.5001,-320.1476 489,-310.1476 485.5001,-320.1476 492.5001,-320.1476"/>
<text text-anchor="start" x="489" y="-330" font-family="Helvetica,sans-Serif" font-size="10.00" fill="#000000">axil_bready_mng &amp;&amp; axil_bvalid_mng &#160;&#160;</text>
</g>
<!-- MEM_AXI_BRESP&#45;&gt;MEM_AXI_BRESP -->
<g id="edge27" class="edge transition">
<title>MEM_AXI_BRESP&#45;&gt;MEM_AXI_BRESP</title>
<path fill="none" stroke="#000000" d="M550.5369,-378.7036C563.3128,-378.2085 572.5,-376.6406 572.5,-374 572.5,-372.1433 567.958,-370.817 560.8201,-370.021"/>
<polygon fill="#000000" stroke="#000000" points="560.7582,-366.508 550.5369,-369.2964 560.2661,-373.4907 560.7582,-366.508"/>
<text text-anchor="start" x="572.5" y="-371" font-family="Helvetica,sans-Serif" font-size="10.00" fill="#000000">not (axil_bready_mng &amp;&amp; axil_bvalid_mng) &#160;&#160;</text>
</g>
<!-- MNG_RREADY -->
<g id="node12" class="node state regular">
<title>MNG_RREADY</title>
<polygon fill="#ffffff" fill-opacity="0.003922" stroke="transparent" stroke-width="2" points="162,-52 56,-52 56,-16 162,-16 162,-52"/>
<text text-anchor="start" x="66.67" y="-30.2" font-family="Helvetica,sans-Serif" font-size="12.00" fill="#000000">MNG_RREADY</text>
<path fill="none" stroke="#000000" stroke-width="2" d="M68.3333,-17C68.3333,-17 149.6667,-17 149.6667,-17 155.3333,-17 161,-22.6667 161,-28.3333 161,-28.3333 161,-39.6667 161,-39.6667 161,-45.3333 155.3333,-51 149.6667,-51 149.6667,-51 68.3333,-51 68.3333,-51 62.6667,-51 57,-45.3333 57,-39.6667 57,-39.6667 57,-28.3333 57,-28.3333 57,-22.6667 62.6667,-17 68.3333,-17"/>
</g>
<!-- READ_UPDATE&#45;&gt;MNG_RREADY -->
<g id="edge28" class="edge transition">
<title>READ_UPDATE&#45;&gt;MNG_RREADY</title>
<path fill="none" stroke="#000000" d="M291.358,-97.9032C255.652,-85.3909 207.9887,-68.6884 170.3458,-55.4973"/>
<polygon fill="#000000" stroke="#000000" points="171.1049,-52.0546 160.5101,-52.0505 168.7899,-58.6608 171.1049,-52.0546"/>
<text text-anchor="middle" x="242.3895" y="-72" font-family="Helvetica,sans-Serif" font-size="10.00" fill="#000000"> </text>
</g>
<!-- MNG_BREADY -->
<g id="node13" class="node state regular">
<title>MNG_BREADY</title>
<polygon fill="#ffffff" fill-opacity="0.003922" stroke="transparent" stroke-width="2" points="1391,-52 1285,-52 1285,-16 1391,-16 1391,-52"/>
<text text-anchor="start" x="1296" y="-30.2" font-family="Helvetica,sans-Serif" font-size="12.00" fill="#000000">MNG_BREADY</text>
<path fill="none" stroke="#000000" stroke-width="2" d="M1297.3333,-17C1297.3333,-17 1378.6667,-17 1378.6667,-17 1384.3333,-17 1390,-22.6667 1390,-28.3333 1390,-28.3333 1390,-39.6667 1390,-39.6667 1390,-45.3333 1384.3333,-51 1378.6667,-51 1378.6667,-51 1297.3333,-51 1297.3333,-51 1291.6667,-51 1286,-45.3333 1286,-39.6667 1286,-39.6667 1286,-28.3333 1286,-28.3333 1286,-22.6667 1291.6667,-17 1297.3333,-17"/>
</g>
<!-- WRITE_UPDATE&#45;&gt;MNG_BREADY -->
<g id="edge29" class="edge transition">
<title>WRITE_UPDATE&#45;&gt;MNG_BREADY</title>
<path fill="none" stroke="#000000" d="M1243.8538,-97.8015C1261.2425,-86.0175 1284.0683,-70.5487 1302.8894,-57.7939"/>
<polygon fill="#000000" stroke="#000000" points="1304.9066,-60.655 1311.2212,-52.1476 1300.9796,-54.8603 1304.9066,-60.655"/>
<text text-anchor="middle" x="1286.3895" y="-72" font-family="Helvetica,sans-Serif" font-size="10.00" fill="#000000"> </text>
</g>
<!-- MNG_RREADY&#45;&gt;IDLE -->
<g id="edge30" class="edge transition">
<title>MNG_RREADY&#45;&gt;IDLE</title>
<path fill="none" stroke="#000000" d="M55.9163,-48.4618C45.6443,-54.5191 38,-63.0434 38,-75 38,-453.5 38,-453.5 38,-453.5 38,-564.9007 -33.5941,-645.7996 62,-703 80.6254,-714.1448 88.4398,-709.4959 110,-712 212.5996,-723.9163 527.7596,-733.7787 637.6917,-736.9378"/>
<polygon fill="#000000" stroke="#000000" points="637.8799,-740.4445 647.9756,-737.2309 638.0794,-733.4473 637.8799,-740.4445"/>
<text text-anchor="start" x="38" y="-371" font-family="Helvetica,sans-Serif" font-size="10.00" fill="#000000">axil_rready_sbd &amp;&amp; axil_rvalid_sbd &#160;&#160;</text>
</g>
<!-- MNG_RREADY&#45;&gt;MNG_RREADY -->
<g id="edge31" class="edge transition">
<title>MNG_RREADY&#45;&gt;MNG_RREADY</title>
<path fill="none" stroke="#000000" d="M162.2553,-38.7786C174.7684,-38.3858 184,-36.793 184,-34 184,-32.0362 179.4361,-30.6657 172.3765,-29.8885"/>
<polygon fill="#000000" stroke="#000000" points="172.4639,-26.3868 162.2553,-29.2214 172.0035,-33.3716 172.4639,-26.3868"/>
<text text-anchor="start" x="184" y="-31" font-family="Helvetica,sans-Serif" font-size="10.00" fill="#000000">not (axil_rready_sbd &amp;&amp; axil_rvalid_sbd) &#160;&#160;</text>
</g>
<!-- MNG_BREADY&#45;&gt;IDLE -->
<g id="edge32" class="edge transition">
<title>MNG_BREADY&#45;&gt;IDLE</title>
<path fill="none" stroke="#000000" d="M1391.1738,-39.0044C1454.5527,-45.7046 1552,-58.6628 1552,-75 1552,-347.5 1552,-347.5 1552,-347.5 1552,-487.8792 1666.8643,-489.8344 1701,-626 1704.8907,-641.5197 1711.0955,-649.5871 1701,-662 1644.5714,-731.3818 1592.6584,-691.2651 1504,-703 1348.3057,-723.6079 856.0043,-734.521 714.4286,-737.2876"/>
<polygon fill="#000000" stroke="#000000" points="714.0203,-733.7947 704.0898,-737.4873 714.1556,-740.7934 714.0203,-733.7947"/>
<text text-anchor="start" x="1556" y="-371" font-family="Helvetica,sans-Serif" font-size="10.00" fill="#000000">axil_bready_sbd &amp;&amp; axil_bvalid_sbd &#160;&#160;</text>
</g>
<!-- MNG_BREADY&#45;&gt;MNG_BREADY -->
<g id="edge33" class="edge transition">
<title>MNG_BREADY&#45;&gt;MNG_BREADY</title>
<path fill="none" stroke="#000000" d="M1391.2553,-38.7786C1403.7684,-38.3858 1413,-36.793 1413,-34 1413,-32.0362 1408.4361,-30.6657 1401.3765,-29.8885"/>
<polygon fill="#000000" stroke="#000000" points="1401.4639,-26.3868 1391.2553,-29.2214 1401.0035,-33.3716 1401.4639,-26.3868"/>
<text text-anchor="start" x="1413" y="-31" font-family="Helvetica,sans-Serif" font-size="10.00" fill="#000000">not (axil_bready_sbd &amp;&amp; axil_bvalid_sbd) &#160;&#160;</text>
</g>
</g>
</svg>
