<?xml version="1.0" encoding="UTF-8" standalone="no"?>
<!DOCTYPE svg PUBLIC "-//W3C//DTD SVG 1.1//EN"
 "http://www.w3.org/Graphics/SVG/1.1/DTD/svg11.dtd">
<!-- Generated by graphviz version 2.40.1 (20161225.0304)
 -->
<!-- Title: state transitions Pages: 1 -->
<svg width="1744pt" height="892pt"
 viewBox="0.00 0.00 1744.00 892.00" xmlns="http://www.w3.org/2000/svg" xmlns:xlink="http://www.w3.org/1999/xlink">
<g id="graph0" class="graph" transform="scale(1 1) rotate(0) translate(4 888)">
<title>state transitions</title>
<polygon fill="#ffffff" stroke="transparent" points="-4,4 -4,-888 1740,-888 1740,4 -4,4"/>
<g id="clust1" class="cluster state regular">
<title>cluster_next_state</title>
<path fill="none" stroke="#000000" stroke-width="2" d="M20,-8C20,-8 1716,-8 1716,-8 1722,-8 1728,-14 1728,-20 1728,-20 1728,-864 1728,-864 1728,-870 1722,-876 1716,-876 1716,-876 20,-876 20,-876 14,-876 8,-870 8,-864 8,-864 8,-20 8,-20 8,-14 14,-8 20,-8"/>
<text text-anchor="start" x="840.8208" y="-857.2" font-family="Helvetica,sans-Serif" font-size="12.00" fill="#000000">next_state</text>
</g>
<!-- next_state -->
<!-- IDLE -->
<g id="node2" class="node state regular">
<title>IDLE</title>
<polygon fill="#ffffff" fill-opacity="0.003922" stroke="transparent" stroke-width="2" points="704,-838 648,-838 648,-802 704,-802 704,-838"/>
<text text-anchor="start" x="662.6644" y="-816.2" font-family="Helvetica,sans-Serif" font-size="12.00" fill="#000000">IDLE</text>
<path fill="none" stroke="#000000" stroke-width="2" d="M660.3333,-803C660.3333,-803 691.6667,-803 691.6667,-803 697.3333,-803 703,-808.6667 703,-814.3333 703,-814.3333 703,-825.6667 703,-825.6667 703,-831.3333 697.3333,-837 691.6667,-837 691.6667,-837 660.3333,-837 660.3333,-837 654.6667,-837 649,-831.3333 649,-825.6667 649,-825.6667 649,-814.3333 649,-814.3333 649,-808.6667 654.6667,-803 660.3333,-803"/>
</g>
<!-- IDLE&#45;&gt;IDLE -->
<g id="edge4" class="edge transition">
<title>IDLE&#45;&gt;IDLE</title>
<path fill="none" stroke="#000000" d="M704.0183,-824.8247C715.888,-825.1883 726,-823.5801 726,-820 726,-817.5387 721.2205,-816.0094 714.3762,-815.4121"/>
<polygon fill="#000000" stroke="#000000" points="714.0957,-811.9049 704.0183,-815.1753 713.9356,-818.903 714.0957,-811.9049"/>
<text text-anchor="start" x="726" y="-829" font-family="Helvetica,sans-Serif" font-size="10.00" fill="#000000">not (axil_arready_sbd &amp;&amp; axil_arvalid_sbd) &#160;&#160;</text>
<text text-anchor="start" x="726" y="-817" font-family="Helvetica,sans-Serif" font-size="10.00" fill="#000000">not (axil_awready_sbd &amp;&amp; axil_awvalid_sbd &amp;&amp; axil_wready_sbd &amp;&amp; axil_wvalid_sbd) &#160;&#160;</text>
<text text-anchor="start" x="726" y="-805" font-family="Helvetica,sans-Serif" font-size="10.00" fill="#000000">not (axil_awready_sbd &amp;&amp; axil_awvalid_sbd) &#160;&#160;</text>
</g>
<!-- WAIT_FOR_DATA -->
<g id="node3" class="node state regular">
<title>WAIT_FOR_DATA</title>
<polygon fill="#ffffff" fill-opacity="0.003922" stroke="transparent" stroke-width="2" points="1059,-744 937,-744 937,-708 1059,-708 1059,-744"/>
<text text-anchor="start" x="947.6678" y="-722.2" font-family="Helvetica,sans-Serif" font-size="12.00" fill="#000000">WAIT_FOR_DATA</text>
<path fill="none" stroke="#000000" stroke-width="2" d="M949.3333,-709C949.3333,-709 1046.6667,-709 1046.6667,-709 1052.3333,-709 1058,-714.6667 1058,-720.3333 1058,-720.3333 1058,-731.6667 1058,-731.6667 1058,-737.3333 1052.3333,-743 1046.6667,-743 1046.6667,-743 949.3333,-743 949.3333,-743 943.6667,-743 938,-737.3333 938,-731.6667 938,-731.6667 938,-720.3333 938,-720.3333 938,-714.6667 943.6667,-709 949.3333,-709"/>
</g>
<!-- IDLE&#45;&gt;WAIT_FOR_DATA -->
<g id="edge3" class="edge transition">
<title>IDLE&#45;&gt;WAIT_FOR_DATA</title>
<path fill="none" stroke="#000000" d="M704.0121,-811.8226C753.3329,-797.4246 857.0759,-767.1393 927.1676,-746.6778"/>
<polygon fill="#000000" stroke="#000000" points="928.2069,-750.0206 936.8254,-743.8584 926.2452,-743.301 928.2069,-750.0206"/>
<text text-anchor="start" x="876" y="-770" font-family="Helvetica,sans-Serif" font-size="10.00" fill="#000000">axil_awready_sbd &amp;&amp; axil_awvalid_sbd &#160;&#160;</text>
</g>
<!-- READ -->
<g id="node4" class="node state regular">
<title>READ</title>
<polygon fill="#ffffff" fill-opacity="0.003922" stroke="transparent" stroke-width="2" points="96,-744 40,-744 40,-708 96,-708 96,-744"/>
<text text-anchor="start" x="51.3344" y="-722.2" font-family="Helvetica,sans-Serif" font-size="12.00" fill="#000000">READ</text>
<path fill="none" stroke="#000000" stroke-width="2" d="M52.3333,-709C52.3333,-709 83.6667,-709 83.6667,-709 89.3333,-709 95,-714.6667 95,-720.3333 95,-720.3333 95,-731.6667 95,-731.6667 95,-737.3333 89.3333,-743 83.6667,-743 83.6667,-743 52.3333,-743 52.3333,-743 46.6667,-743 41,-737.3333 41,-731.6667 41,-731.6667 41,-720.3333 41,-720.3333 41,-714.6667 46.6667,-709 52.3333,-709"/>
</g>
<!-- IDLE&#45;&gt;READ -->
<g id="edge1" class="edge transition">
<title>IDLE&#45;&gt;READ</title>
<path fill="none" stroke="#000000" d="M647.9438,-816.4769C611.9667,-811.5294 547.9021,-801.2631 494.963,-785 469.093,-777.0526 465.2246,-767.685 439,-761 376.8279,-745.1516 188.288,-732.8512 106.5171,-728.1146"/>
<polygon fill="#000000" stroke="#000000" points="106.3534,-724.5996 96.1698,-727.5227 105.9536,-731.5882 106.3534,-724.5996"/>
<text text-anchor="start" x="494" y="-770" font-family="Helvetica,sans-Serif" font-size="10.00" fill="#000000">axil_arready_sbd &amp;&amp; axil_arvalid_sbd &#160;&#160;</text>
</g>
<!-- WRITE -->
<g id="node5" class="node state regular">
<title>WRITE</title>
<polygon fill="#ffffff" fill-opacity="0.003922" stroke="transparent" stroke-width="2" points="903,-662 843,-662 843,-626 903,-626 903,-662"/>
<text text-anchor="start" x="853.671" y="-640.2" font-family="Helvetica,sans-Serif" font-size="12.00" fill="#000000">WRITE</text>
<path fill="none" stroke="#000000" stroke-width="2" d="M855.3333,-627C855.3333,-627 890.6667,-627 890.6667,-627 896.3333,-627 902,-632.6667 902,-638.3333 902,-638.3333 902,-649.6667 902,-649.6667 902,-655.3333 896.3333,-661 890.6667,-661 890.6667,-661 855.3333,-661 855.3333,-661 849.6667,-661 844,-655.3333 844,-649.6667 844,-649.6667 844,-638.3333 844,-638.3333 844,-632.6667 849.6667,-627 855.3333,-627"/>
</g>
<!-- IDLE&#45;&gt;WRITE -->
<g id="edge2" class="edge transition">
<title>IDLE&#45;&gt;WRITE</title>
<path fill="none" stroke="#000000" d="M679.801,-801.9426C681.4161,-788.8957 681.0315,-771.7453 671,-761 637.2192,-724.8154 593.1465,-781.5798 560.925,-744 550.5104,-731.8535 550.8114,-720.3982 560.925,-708 594.8151,-666.4544 756.3704,-651.1289 832.7786,-646.1376"/>
<polygon fill="#000000" stroke="#000000" points="833.2108,-649.6175 842.9729,-645.5002 832.774,-642.6311 833.2108,-649.6175"/>
<text text-anchor="start" x="560" y="-723" font-family="Helvetica,sans-Serif" font-size="10.00" fill="#000000">axil_awready_sbd &amp;&amp; axil_awvalid_sbd &amp;&amp; axil_wready_sbd &amp;&amp; axil_wvalid_sbd &#160;&#160;</text>
</g>
<!-- WAIT_FOR_DATA&#45;&gt;WAIT_FOR_DATA -->
<g id="edge6" class="edge transition">
<title>WAIT_FOR_DATA&#45;&gt;WAIT_FOR_DATA</title>
<path fill="none" stroke="#000000" d="M1059.1684,-730.7036C1071.8678,-730.2085 1081,-728.6406 1081,-726 1081,-724.1433 1076.4852,-722.817 1069.39,-722.021"/>
<polygon fill="#000000" stroke="#000000" points="1069.3909,-718.5124 1059.1684,-721.2964 1068.8959,-725.4948 1069.3909,-718.5124"/>
<text text-anchor="start" x="1081" y="-723" font-family="Helvetica,sans-Serif" font-size="10.00" fill="#000000">not (axil_wready_sbd &amp;&amp; axil_wvalid_sbd) &#160;&#160;</text>
</g>
<!-- WAIT_FOR_DATA&#45;&gt;WRITE -->
<g id="edge5" class="edge transition">
<title>WAIT_FOR_DATA&#45;&gt;WRITE</title>
<path fill="none" stroke="#000000" d="M970.2584,-707.8015C952.295,-696.0175 928.7145,-680.5487 909.2713,-667.7939"/>
<polygon fill="#000000" stroke="#000000" points="910.9453,-664.7062 900.664,-662.1476 907.1057,-670.5592 910.9453,-664.7062"/>
<text text-anchor="start" x="943" y="-682" font-family="Helvetica,sans-Serif" font-size="10.00" fill="#000000">axil_wready_sbd &amp;&amp; axil_wvalid_sbd &#160;&#160;</text>
</g>
<!-- READ&#45;&gt;IDLE -->
<g id="edge7" class="edge transition">
<title>READ&#45;&gt;IDLE</title>
<path fill="none" stroke="#000000" d="M66.0457,-744.0255C65.6897,-757.4123 67.7381,-775.0142 79.081,-785 100.0882,-803.4939 509.4197,-815.6693 637.8173,-819.0454"/>
<polygon fill="#000000" stroke="#000000" points="637.8774,-822.548 647.965,-819.3092 638.0594,-815.5504 637.8774,-822.548"/>
<text text-anchor="start" x="79" y="-776" font-family="Helvetica,sans-Serif" font-size="10.00" fill="#000000">axil_rready_sbd &amp;&amp; axil_rvalid_sbd &#160;&#160;</text>
<text text-anchor="start" x="79" y="-764" font-family="Helvetica,sans-Serif" font-size="10.00" fill="#000000">valid_out[0] &amp;&amp; tag == tag_out[0] &#160;&#160;</text>
</g>
<!-- READ&#45;&gt;IDLE -->
<g id="edge9" class="edge transition">
<title>READ&#45;&gt;IDLE</title>
<path fill="none" stroke="#000000" d="M96.2208,-729.7162C139.1378,-735.6836 218.5168,-748.0526 244,-761 258.0438,-768.1353 255.6652,-778.6496 270.081,-785 303.2269,-799.6013 543.1771,-813.2428 637.7917,-818.1135"/>
<polygon fill="#000000" stroke="#000000" points="637.6357,-821.61 647.801,-818.6239 637.9922,-814.6191 637.6357,-821.61"/>
<text text-anchor="start" x="270" y="-776" font-family="Helvetica,sans-Serif" font-size="10.00" fill="#000000">axil_rready_sbd &amp;&amp; axil_rvalid_sbd &#160;&#160;</text>
<text text-anchor="start" x="270" y="-764" font-family="Helvetica,sans-Serif" font-size="10.00" fill="#000000">valid_out[1] &amp;&amp; tag == tag_out[1] &#160;&#160;</text>
</g>
<!-- READ&#45;&gt;READ -->
<g id="edge8" class="edge transition">
<title>READ&#45;&gt;READ</title>
<path fill="none" stroke="#000000" d="M96.0183,-728.4124C107.888,-728.5942 118,-727.79 118,-726 118,-724.7693 113.2205,-724.0047 106.3762,-723.706"/>
<polygon fill="#000000" stroke="#000000" points="106.0576,-720.2023 96.0183,-723.5876 105.9776,-727.2018 106.0576,-720.2023"/>
<text text-anchor="start" x="118" y="-729" font-family="Helvetica,sans-Serif" font-size="10.00" fill="#000000">not (axil_rready_sbd &amp;&amp; axil_rvalid_sbd) &#160;&#160;</text>
<text text-anchor="start" x="118" y="-717" font-family="Helvetica,sans-Serif" font-size="10.00" fill="#000000">valid_out[0] &amp;&amp; tag == tag_out[0] &#160;&#160;</text>
</g>
<!-- READ&#45;&gt;READ -->
<g id="edge10" class="edge transition">
<title>READ&#45;&gt;READ</title>
<path fill="none" stroke="#000000" d="M96.0133,-728.8252C160.3824,-732.2992 305.253,-731.3574 305.253,-726 305.253,-720.9146 174.7223,-719.8079 106.4128,-722.6797"/>
<polygon fill="#000000" stroke="#000000" points="105.8355,-719.2031 96.0133,-723.1748 106.1684,-726.1952 105.8355,-719.2031"/>
<text text-anchor="start" x="305.253" y="-729" font-family="Helvetica,sans-Serif" font-size="10.00" fill="#000000">not (axil_rready_sbd &amp;&amp; axil_rvalid_sbd) &#160;&#160;</text>
<text text-anchor="start" x="305.253" y="-717" font-family="Helvetica,sans-Serif" font-size="10.00" fill="#000000">valid_out[1] &amp;&amp; tag == tag_out[1] &#160;&#160;</text>
</g>
<!-- MEM_READ_REQ -->
<g id="node6" class="node state regular">
<title>MEM_READ_REQ</title>
<polygon fill="#ffffff" fill-opacity="0.003922" stroke="transparent" stroke-width="2" points="580,-392 458,-392 458,-356 580,-356 580,-392"/>
<text text-anchor="start" x="468.6672" y="-370.2" font-family="Helvetica,sans-Serif" font-size="12.00" fill="#000000">MEM_READ_REQ</text>
<path fill="none" stroke="#000000" stroke-width="2" d="M470.3333,-357C470.3333,-357 567.6667,-357 567.6667,-357 573.3333,-357 579,-362.6667 579,-368.3333 579,-368.3333 579,-379.6667 579,-379.6667 579,-385.3333 573.3333,-391 567.6667,-391 567.6667,-391 470.3333,-391 470.3333,-391 464.6667,-391 459,-385.3333 459,-379.6667 459,-379.6667 459,-368.3333 459,-368.3333 459,-362.6667 464.6667,-357 470.3333,-357"/>
</g>
<!-- READ&#45;&gt;MEM_READ_REQ -->
<g id="edge12" class="edge transition">
<title>READ&#45;&gt;MEM_READ_REQ</title>
<path fill="none" stroke="#000000" d="M96.0462,-725.2552C145.9554,-723.1616 245,-715.2022 245,-685 245,-685 245,-685 245,-415 245,-394.5027 366.4823,-383.1239 447.6671,-377.8082"/>
<polygon fill="#000000" stroke="#000000" points="448.093,-381.2883 457.8501,-377.1592 447.6477,-374.3025 448.093,-381.2883"/>
<text text-anchor="start" x="245" y="-571" font-family="Helvetica,sans-Serif" font-size="10.00" fill="#000000">not (valid_out[0] &amp;&amp; tag == tag_out[0]) &#160;&#160;</text>
<text text-anchor="start" x="245" y="-559" font-family="Helvetica,sans-Serif" font-size="10.00" fill="#000000">not (valid_out[1] &amp;&amp; tag == tag_out[1]) &#160;&#160;</text>
<text text-anchor="start" x="245" y="-547" font-family="Helvetica,sans-Serif" font-size="10.00" fill="#000000">not (dirty_out[lru_out]) &#160;&#160;</text>
</g>
<!-- MEM_WRITE_REQ -->
<g id="node8" class="node state regular">
<title>MEM_WRITE_REQ</title>
<polygon fill="#ffffff" fill-opacity="0.003922" stroke="transparent" stroke-width="2" points="582.5,-580 455.5,-580 455.5,-544 582.5,-544 582.5,-580"/>
<text text-anchor="start" x="466.5038" y="-558.2" font-family="Helvetica,sans-Serif" font-size="12.00" fill="#000000">MEM_WRITE_REQ</text>
<path fill="none" stroke="#000000" stroke-width="2" d="M467.8333,-545C467.8333,-545 570.1667,-545 570.1667,-545 575.8333,-545 581.5,-550.6667 581.5,-556.3333 581.5,-556.3333 581.5,-567.6667 581.5,-567.6667 581.5,-573.3333 575.8333,-579 570.1667,-579 570.1667,-579 467.8333,-579 467.8333,-579 462.1667,-579 456.5,-573.3333 456.5,-567.6667 456.5,-567.6667 456.5,-556.3333 456.5,-556.3333 456.5,-550.6667 462.1667,-545 467.8333,-545"/>
</g>
<!-- READ&#45;&gt;MEM_WRITE_REQ -->
<g id="edge11" class="edge transition">
<title>READ&#45;&gt;MEM_WRITE_REQ</title>
<path fill="none" stroke="#000000" d="M96.1356,-725.4402C175.9388,-723.4819 398,-715.3094 398,-685 398,-685 398,-685 398,-603 398,-590.8553 420.1417,-581.5984 445.4819,-574.9809"/>
<polygon fill="#000000" stroke="#000000" points="446.4307,-578.3521 455.3109,-572.5735 444.7653,-571.5531 446.4307,-578.3521"/>
<text text-anchor="start" x="398" y="-641" font-family="Helvetica,sans-Serif" font-size="10.00" fill="#000000">dirty_out[lru_out] &#160;&#160;</text>
</g>
<!-- WRITE&#45;&gt;IDLE -->
<g id="edge13" class="edge transition">
<title>WRITE&#45;&gt;IDLE</title>
<path fill="none" stroke="#000000" d="M903.1009,-645.2061C1002.8084,-649.3977 1316,-664.218 1316,-685 1316,-773 1316,-773 1316,-773 1316,-803.335 852.6424,-816.0749 714.4504,-819.2"/>
<polygon fill="#000000" stroke="#000000" points="714.2456,-815.7036 704.3258,-819.4248 714.4011,-822.7018 714.2456,-815.7036"/>
<text text-anchor="start" x="1316" y="-729" font-family="Helvetica,sans-Serif" font-size="10.00" fill="#000000">axil_bready_sbd &amp;&amp; axil_bvalid_sbd &#160;&#160;</text>
<text text-anchor="start" x="1316" y="-717" font-family="Helvetica,sans-Serif" font-size="10.00" fill="#000000">valid_out[0] &amp;&amp; tag == tag_out[0] &#160;&#160;</text>
</g>
<!-- WRITE&#45;&gt;IDLE -->
<g id="edge15" class="edge transition">
<title>WRITE&#45;&gt;IDLE</title>
<path fill="none" stroke="#000000" d="M903.2784,-644.2897C1032.0969,-645.7178 1528,-653.2754 1528,-685 1528,-773 1528,-773 1528,-773 1528,-793.6566 880.9097,-814.0054 714.5952,-818.8943"/>
<polygon fill="#000000" stroke="#000000" points="714.241,-815.4031 704.3476,-819.1938 714.4456,-822.4001 714.241,-815.4031"/>
<text text-anchor="start" x="1528" y="-729" font-family="Helvetica,sans-Serif" font-size="10.00" fill="#000000">axil_bready_sbd &amp;&amp; axil_bvalid_sbd &#160;&#160;</text>
<text text-anchor="start" x="1528" y="-717" font-family="Helvetica,sans-Serif" font-size="10.00" fill="#000000">valid_out[1] &amp;&amp; tag == tag_out[1] &#160;&#160;</text>
</g>
<!-- WRITE&#45;&gt;WRITE -->
<g id="edge14" class="edge transition">
<title>WRITE&#45;&gt;WRITE</title>
<path fill="none" stroke="#000000" d="M903.185,-646.4254C915.0717,-646.5477 925,-645.7393 925,-644 925,-642.8043 920.3073,-642.0485 913.5118,-641.7326"/>
<polygon fill="#000000" stroke="#000000" points="913.2374,-638.2281 903.185,-641.5746 913.1302,-645.2273 913.2374,-638.2281"/>
<text text-anchor="start" x="925" y="-647" font-family="Helvetica,sans-Serif" font-size="10.00" fill="#000000">not (axil_bready_sbd &amp;&amp; axil_bvalid_sbd) &#160;&#160;</text>
<text text-anchor="start" x="925" y="-635" font-family="Helvetica,sans-Serif" font-size="10.00" fill="#000000">valid_out[0] &amp;&amp; tag == tag_out[0] &#160;&#160;</text>
</g>
<!-- WRITE&#45;&gt;WRITE -->
<g id="edge16" class="edge transition">
<title>WRITE&#45;&gt;WRITE</title>
<path fill="none" stroke="#000000" d="M903.2035,-646.8986C970.015,-650.2855 1116.713,-649.3193 1116.713,-644 1116.713,-638.9404 983.9912,-637.8192 913.5353,-640.6364"/>
<polygon fill="#000000" stroke="#000000" points="913.036,-637.1552 903.2035,-641.1014 913.3507,-644.1481 913.036,-637.1552"/>
<text text-anchor="start" x="1116.713" y="-647" font-family="Helvetica,sans-Serif" font-size="10.00" fill="#000000">not (axil_bready_sbd &amp;&amp; axil_bvalid_sbd) &#160;&#160;</text>
<text text-anchor="start" x="1116.713" y="-635" font-family="Helvetica,sans-Serif" font-size="10.00" fill="#000000">valid_out[1] &amp;&amp; tag == tag_out[1] &#160;&#160;</text>
</g>
<!-- WRITE&#45;&gt;MEM_READ_REQ -->
<g id="edge18" class="edge transition">
<title>WRITE&#45;&gt;MEM_READ_REQ</title>
<path fill="none" stroke="#000000" d="M842.6688,-626.7633C835.5535,-620.4539 830,-612.4897 830,-603 830,-603 830,-603 830,-415 830,-390.9519 681.9519,-380.5705 590.149,-376.4447"/>
<polygon fill="#000000" stroke="#000000" points="590.2151,-372.9444 580.0725,-376.0067 589.9111,-379.9378 590.2151,-372.9444"/>
<text text-anchor="start" x="830" y="-518" font-family="Helvetica,sans-Serif" font-size="10.00" fill="#000000">not (valid_out[0] &amp;&amp; tag == tag_out[0]) &#160;&#160;</text>
<text text-anchor="start" x="830" y="-506" font-family="Helvetica,sans-Serif" font-size="10.00" fill="#000000">not (valid_out[1] &amp;&amp; tag == tag_out[1]) &#160;&#160;</text>
<text text-anchor="start" x="830" y="-494" font-family="Helvetica,sans-Serif" font-size="10.00" fill="#000000">not (dirty_out[lru_out]) &#160;&#160;</text>
</g>
<!-- WRITE&#45;&gt;MEM_WRITE_REQ -->
<g id="edge17" class="edge transition">
<title>WRITE&#45;&gt;MEM_WRITE_REQ</title>
<path fill="none" stroke="#000000" d="M842.8182,-637.0087C787.9324,-624.2951 670.3178,-597.051 592.971,-579.1345"/>
<polygon fill="#000000" stroke="#000000" points="593.3376,-575.6268 582.8057,-576.7799 591.7579,-582.4463 593.3376,-575.6268"/>
<text text-anchor="start" x="719" y="-600" font-family="Helvetica,sans-Serif" font-size="10.00" fill="#000000">dirty_out[lru_out] &#160;&#160;</text>
</g>
<!-- MEM_AXI_RRESP -->
<g id="node7" class="node state regular">
<title>MEM_AXI_RRESP</title>
<polygon fill="#ffffff" fill-opacity="0.003922" stroke="transparent" stroke-width="2" points="581,-310 457,-310 457,-274 581,-274 581,-310"/>
<text text-anchor="start" x="467.9958" y="-288.2" font-family="Helvetica,sans-Serif" font-size="12.00" fill="#000000">MEM_AXI_RRESP</text>
<path fill="none" stroke="#000000" stroke-width="2" d="M469.3333,-275C469.3333,-275 568.6667,-275 568.6667,-275 574.3333,-275 580,-280.6667 580,-286.3333 580,-286.3333 580,-297.6667 580,-297.6667 580,-303.3333 574.3333,-309 568.6667,-309 568.6667,-309 469.3333,-309 469.3333,-309 463.6667,-309 458,-303.3333 458,-297.6667 458,-297.6667 458,-286.3333 458,-286.3333 458,-280.6667 463.6667,-275 469.3333,-275"/>
</g>
<!-- MEM_READ_REQ&#45;&gt;MEM_AXI_RRESP -->
<g id="edge19" class="edge transition">
<title>MEM_READ_REQ&#45;&gt;MEM_AXI_RRESP</title>
<path fill="none" stroke="#000000" d="M519,-355.8015C519,-345.3976 519,-332.1215 519,-320.3768"/>
<polygon fill="#000000" stroke="#000000" points="522.5001,-320.1476 519,-310.1476 515.5001,-320.1476 522.5001,-320.1476"/>
<text text-anchor="middle" x="520.3895" y="-330" font-family="Helvetica,sans-Serif" font-size="10.00" fill="#000000"> </text>
</g>
<!-- READ_UPDATE -->
<g id="node10" class="node state regular">
<title>READ_UPDATE</title>
<polygon fill="#ffffff" fill-opacity="0.003922" stroke="transparent" stroke-width="2" points="573,-216 463,-216 463,-180 573,-180 573,-216"/>
<text text-anchor="start" x="473.6666" y="-194.2" font-family="Helvetica,sans-Serif" font-size="12.00" fill="#000000">READ_UPDATE</text>
<path fill="none" stroke="#000000" stroke-width="2" d="M475.3333,-181C475.3333,-181 560.6667,-181 560.6667,-181 566.3333,-181 572,-186.6667 572,-192.3333 572,-192.3333 572,-203.6667 572,-203.6667 572,-209.3333 566.3333,-215 560.6667,-215 560.6667,-215 475.3333,-215 475.3333,-215 469.6667,-215 464,-209.3333 464,-203.6667 464,-203.6667 464,-192.3333 464,-192.3333 464,-186.6667 469.6667,-181 475.3333,-181"/>
</g>
<!-- MEM_AXI_RRESP&#45;&gt;READ_UPDATE -->
<g id="edge21" class="edge transition">
<title>MEM_AXI_RRESP&#45;&gt;READ_UPDATE</title>
<path fill="none" stroke="#000000" d="M518.8072,-273.8759C518.6633,-260.3516 518.464,-241.6192 518.2995,-226.1514"/>
<polygon fill="#000000" stroke="#000000" points="521.7985,-226.0307 518.1922,-216.0685 514.7989,-226.1052 521.7985,-226.0307"/>
<text text-anchor="start" x="518" y="-248" font-family="Helvetica,sans-Serif" font-size="10.00" fill="#000000">not (r_w) &#160;&#160;</text>
<text text-anchor="start" x="518" y="-236" font-family="Helvetica,sans-Serif" font-size="10.00" fill="#000000">axil_rready_mng &amp;&amp; axil_rvalid_mng &#160;&#160;</text>
</g>
<!-- WRITE_UPDATE -->
<g id="node11" class="node state regular">
<title>WRITE_UPDATE</title>
<polygon fill="#ffffff" fill-opacity="0.003922" stroke="transparent" stroke-width="2" points="796.5,-216 681.5,-216 681.5,-180 796.5,-180 796.5,-216"/>
<text text-anchor="start" x="692.5032" y="-194.2" font-family="Helvetica,sans-Serif" font-size="12.00" fill="#000000">WRITE_UPDATE</text>
<path fill="none" stroke="#000000" stroke-width="2" d="M693.8333,-181C693.8333,-181 784.1667,-181 784.1667,-181 789.8333,-181 795.5,-186.6667 795.5,-192.3333 795.5,-192.3333 795.5,-203.6667 795.5,-203.6667 795.5,-209.3333 789.8333,-215 784.1667,-215 784.1667,-215 693.8333,-215 693.8333,-215 688.1667,-215 682.5,-209.3333 682.5,-203.6667 682.5,-203.6667 682.5,-192.3333 682.5,-192.3333 682.5,-186.6667 688.1667,-181 693.8333,-181"/>
</g>
<!-- MEM_AXI_RRESP&#45;&gt;WRITE_UPDATE -->
<g id="edge20" class="edge transition">
<title>MEM_AXI_RRESP&#45;&gt;WRITE_UPDATE</title>
<path fill="none" stroke="#000000" d="M581.1019,-284.2925C623.539,-278.1477 675.342,-268.6536 694,-257 706.6249,-249.1146 717.0207,-236.3279 724.6276,-224.6707"/>
<polygon fill="#000000" stroke="#000000" points="727.653,-226.4321 729.8917,-216.0765 721.6838,-222.7758 727.653,-226.4321"/>
<text text-anchor="start" x="718" y="-248" font-family="Helvetica,sans-Serif" font-size="10.00" fill="#000000">r_w &#160;&#160;</text>
<text text-anchor="start" x="718" y="-236" font-family="Helvetica,sans-Serif" font-size="10.00" fill="#000000">axil_rready_mng &amp;&amp; axil_rvalid_mng &#160;&#160;</text>
</g>
<!-- MEM_RRESP -->
<g id="node14" class="node state regular">
<title>MEM_RRESP</title>
<polygon fill="#ffffff" fill-opacity="0.003922" stroke="transparent" stroke-width="2" points="329.5,-216 232.5,-216 232.5,-180 329.5,-180 329.5,-216"/>
<text text-anchor="start" x="243.5014" y="-194.2" font-family="Helvetica,sans-Serif" font-size="12.00" fill="#000000">MEM_RRESP</text>
<path fill="none" stroke="#ff0000" stroke-width="2" d="M244.8333,-181C244.8333,-181 317.1667,-181 317.1667,-181 322.8333,-181 328.5,-186.6667 328.5,-192.3333 328.5,-192.3333 328.5,-203.6667 328.5,-203.6667 328.5,-209.3333 322.8333,-215 317.1667,-215 317.1667,-215 244.8333,-215 244.8333,-215 239.1667,-215 233.5,-209.3333 233.5,-203.6667 233.5,-203.6667 233.5,-192.3333 233.5,-192.3333 233.5,-186.6667 239.1667,-181 244.8333,-181"/>
</g>
<!-- MEM_AXI_RRESP&#45;&gt;MEM_RRESP -->
<g id="edge22" class="edge transition">
<title>MEM_AXI_RRESP&#45;&gt;MEM_RRESP</title>
<path fill="none" stroke="#ff0000" d="M456.8857,-286.5845C406.8293,-281.235 341.2613,-271.6992 319.089,-257 307.5776,-249.3684 298.7956,-236.938 292.5816,-225.4502"/>
<polygon fill="#ff0000" stroke="#ff0000" points="295.5448,-223.5479 287.9623,-216.1481 289.2753,-226.6613 295.5448,-223.5479"/>
<text text-anchor="start" x="319" y="-242" font-family="Helvetica,sans-Serif" font-size="10.00" fill="#ff0000">not (axil_rready_mng &amp;&amp; axil_rvalid_mng) &#160;&#160;</text>
</g>
<!-- MEM_AXI_BRESP -->
<g id="node9" class="node state regular">
<title>MEM_AXI_BRESP</title>
<polygon fill="#ffffff" fill-opacity="0.003922" stroke="transparent" stroke-width="2" points="580.5,-474 457.5,-474 457.5,-438 580.5,-438 580.5,-474"/>
<text text-anchor="start" x="468.8258" y="-452.2" font-family="Helvetica,sans-Serif" font-size="12.00" fill="#000000">MEM_AXI_BRESP</text>
<path fill="none" stroke="#000000" stroke-width="2" d="M469.8333,-439C469.8333,-439 568.1667,-439 568.1667,-439 573.8333,-439 579.5,-444.6667 579.5,-450.3333 579.5,-450.3333 579.5,-461.6667 579.5,-461.6667 579.5,-467.3333 573.8333,-473 568.1667,-473 568.1667,-473 469.8333,-473 469.8333,-473 464.1667,-473 458.5,-467.3333 458.5,-461.6667 458.5,-461.6667 458.5,-450.3333 458.5,-450.3333 458.5,-444.6667 464.1667,-439 469.8333,-439"/>
</g>
<!-- MEM_WRITE_REQ&#45;&gt;MEM_AXI_BRESP -->
<g id="edge23" class="edge transition">
<title>MEM_WRITE_REQ&#45;&gt;MEM_AXI_BRESP</title>
<path fill="none" stroke="#000000" d="M519,-543.5362C519,-527.1966 519,-503.1 519,-484.3232"/>
<polygon fill="#000000" stroke="#000000" points="522.5001,-484.2522 519,-474.2522 515.5001,-484.2522 522.5001,-484.2522"/>
<text text-anchor="middle" x="520.3895" y="-506" font-family="Helvetica,sans-Serif" font-size="10.00" fill="#000000"> </text>
</g>
<!-- MEM_AXI_BRESP&#45;&gt;MEM_READ_REQ -->
<g id="edge24" class="edge transition">
<title>MEM_AXI_BRESP&#45;&gt;MEM_READ_REQ</title>
<path fill="none" stroke="#000000" d="M519,-437.8015C519,-427.3976 519,-414.1215 519,-402.3768"/>
<polygon fill="#000000" stroke="#000000" points="522.5001,-402.1476 519,-392.1476 515.5001,-402.1476 522.5001,-402.1476"/>
<text text-anchor="start" x="519" y="-412" font-family="Helvetica,sans-Serif" font-size="10.00" fill="#000000">axil_bready_mng &amp;&amp; axil_bvalid_mng &#160;&#160;</text>
</g>
<!-- MEM_AXI_BRESP&#45;&gt;MEM_AXI_BRESP -->
<g id="edge25" class="edge transition">
<title>MEM_AXI_BRESP&#45;&gt;MEM_AXI_BRESP</title>
<path fill="none" stroke="#000000" d="M580.5369,-460.7036C593.3128,-460.2085 602.5,-458.6406 602.5,-456 602.5,-454.1433 597.958,-452.817 590.8201,-452.021"/>
<polygon fill="#000000" stroke="#000000" points="590.7582,-448.508 580.5369,-451.2964 590.2661,-455.4907 590.7582,-448.508"/>
<text text-anchor="start" x="602.5" y="-453" font-family="Helvetica,sans-Serif" font-size="10.00" fill="#000000">not (axil_bready_mng &amp;&amp; axil_bvalid_mng) &#160;&#160;</text>
</g>
<!-- MNG_RREADY -->
<g id="node12" class="node state regular">
<title>MNG_RREADY</title>
<polygon fill="#ffffff" fill-opacity="0.003922" stroke="transparent" stroke-width="2" points="569,-134 463,-134 463,-98 569,-98 569,-134"/>
<text text-anchor="start" x="473.67" y="-112.2" font-family="Helvetica,sans-Serif" font-size="12.00" fill="#000000">MNG_RREADY</text>
<path fill="none" stroke="#000000" stroke-width="2" d="M475.3333,-99C475.3333,-99 556.6667,-99 556.6667,-99 562.3333,-99 568,-104.6667 568,-110.3333 568,-110.3333 568,-121.6667 568,-121.6667 568,-127.3333 562.3333,-133 556.6667,-133 556.6667,-133 475.3333,-133 475.3333,-133 469.6667,-133 464,-127.3333 464,-121.6667 464,-121.6667 464,-110.3333 464,-110.3333 464,-104.6667 469.6667,-99 475.3333,-99"/>
</g>
<!-- READ_UPDATE&#45;&gt;MNG_RREADY -->
<g id="edge26" class="edge transition">
<title>READ_UPDATE&#45;&gt;MNG_RREADY</title>
<path fill="none" stroke="#000000" d="M517.5561,-179.8015C517.3024,-169.3976 516.9786,-156.1215 516.6921,-144.3768"/>
<polygon fill="#000000" stroke="#000000" points="520.1855,-144.0592 516.4426,-134.1476 513.1876,-144.23 520.1855,-144.0592"/>
<text text-anchor="middle" x="518.3895" y="-154" font-family="Helvetica,sans-Serif" font-size="10.00" fill="#000000"> </text>
</g>
<!-- MNG_BREADY -->
<g id="node13" class="node state regular">
<title>MNG_BREADY</title>
<polygon fill="#ffffff" fill-opacity="0.003922" stroke="transparent" stroke-width="2" points="800,-134 694,-134 694,-98 800,-98 800,-134"/>
<text text-anchor="start" x="705" y="-112.2" font-family="Helvetica,sans-Serif" font-size="12.00" fill="#000000">MNG_BREADY</text>
<path fill="none" stroke="#000000" stroke-width="2" d="M706.3333,-99C706.3333,-99 787.6667,-99 787.6667,-99 793.3333,-99 799,-104.6667 799,-110.3333 799,-110.3333 799,-121.6667 799,-121.6667 799,-127.3333 793.3333,-133 787.6667,-133 787.6667,-133 706.3333,-133 706.3333,-133 700.6667,-133 695,-127.3333 695,-121.6667 695,-121.6667 695,-110.3333 695,-110.3333 695,-104.6667 700.6667,-99 706.3333,-99"/>
</g>
<!-- WRITE_UPDATE&#45;&gt;MNG_BREADY -->
<g id="edge27" class="edge transition">
<title>WRITE_UPDATE&#45;&gt;MNG_BREADY</title>
<path fill="none" stroke="#000000" d="M740.7755,-179.8015C741.7905,-169.3976 743.0857,-156.1215 744.2315,-144.3768"/>
<polygon fill="#000000" stroke="#000000" points="747.7419,-144.4402 745.2295,-134.1476 740.775,-143.7605 747.7419,-144.4402"/>
<text text-anchor="middle" x="744.3895" y="-154" font-family="Helvetica,sans-Serif" font-size="10.00" fill="#000000"> </text>
</g>
<!-- MNG_RREADY&#45;&gt;IDLE -->
<g id="edge28" class="edge transition">
<title>MNG_RREADY&#45;&gt;IDLE</title>
<path fill="none" stroke="#000000" d="M462.5587,-117.8439C337.8263,-122.501 38,-135.891 38,-157 38,-588.5 38,-588.5 38,-588.5 38,-676.4823 -13.4986,-739.8241 62,-785 80.6254,-796.1448 88.4398,-791.4959 110,-794 212.5996,-805.9163 527.7596,-815.7787 637.6917,-818.9378"/>
<polygon fill="#000000" stroke="#000000" points="637.8799,-822.4445 647.9756,-819.2309 638.0794,-815.4473 637.8799,-822.4445"/>
<text text-anchor="start" x="38" y="-453" font-family="Helvetica,sans-Serif" font-size="10.00" fill="#000000">axil_rready_sbd &amp;&amp; axil_rvalid_sbd &#160;&#160;</text>
</g>
<!-- MNG_READY -->
<g id="node15" class="node state regular">
<title>MNG_READY</title>
<polygon fill="#ffffff" fill-opacity="0.003922" stroke="transparent" stroke-width="2" points="680.5,-52 583.5,-52 583.5,-16 680.5,-16 680.5,-52"/>
<text text-anchor="start" x="594.5014" y="-30.2" font-family="Helvetica,sans-Serif" font-size="12.00" fill="#000000">MNG_READY</text>
<path fill="none" stroke="#ff0000" stroke-width="2" d="M595.8333,-17C595.8333,-17 668.1667,-17 668.1667,-17 673.8333,-17 679.5,-22.6667 679.5,-28.3333 679.5,-28.3333 679.5,-39.6667 679.5,-39.6667 679.5,-45.3333 673.8333,-51 668.1667,-51 668.1667,-51 595.8333,-51 595.8333,-51 590.1667,-51 584.5,-45.3333 584.5,-39.6667 584.5,-39.6667 584.5,-28.3333 584.5,-28.3333 584.5,-22.6667 590.1667,-17 595.8333,-17"/>
</g>
<!-- MNG_RREADY&#45;&gt;MNG_READY -->
<g id="edge29" class="edge transition">
<title>MNG_RREADY&#45;&gt;MNG_READY</title>
<path fill="none" stroke="#ff0000" d="M511.0533,-97.8759C509.5818,-88.4016 509.7111,-77.1207 515.747,-69 523.1564,-59.0314 548.3826,-50.8233 573.4506,-44.8676"/>
<polygon fill="#ff0000" stroke="#ff0000" points="574.4042,-48.2403 583.383,-42.616 572.8566,-41.4135 574.4042,-48.2403"/>
<text text-anchor="start" x="515" y="-72" font-family="Helvetica,sans-Serif" font-size="10.00" fill="#ff0000">not (axil_rready_sbd &amp;&amp; axil_rvalid_sbd) &#160;&#160;</text>
</g>
<!-- MNG_BREADY&#45;&gt;IDLE -->
<g id="edge30" class="edge transition">
<title>MNG_BREADY&#45;&gt;IDLE</title>
<path fill="none" stroke="#000000" d="M800.1296,-117.3145C979.5723,-121.9266 1552,-138.1193 1552,-157 1552,-429.5 1552,-429.5 1552,-429.5 1552,-569.8792 1666.8643,-571.8344 1701,-708 1704.8907,-723.5197 1711.0955,-731.5871 1701,-744 1644.5714,-813.3818 1592.6584,-773.2651 1504,-785 1348.3057,-805.6079 856.0043,-816.521 714.4286,-819.2876"/>
<polygon fill="#000000" stroke="#000000" points="714.0203,-815.7947 704.0898,-819.4873 714.1556,-822.7934 714.0203,-815.7947"/>
<text text-anchor="start" x="1556" y="-453" font-family="Helvetica,sans-Serif" font-size="10.00" fill="#000000">axil_bready_sbd &amp;&amp; axil_bvalid_sbd &#160;&#160;</text>
</g>
<!-- MNG_BREADY&#45;&gt;MNG_READY -->
<g id="edge31" class="edge transition">
<title>MNG_BREADY&#45;&gt;MNG_READY</title>
<path fill="none" stroke="#ff0000" d="M734.9036,-97.7858C727.904,-88.285 718.4279,-77.0077 708,-69 702.2177,-64.5598 695.7817,-60.5153 689.1704,-56.8821"/>
<polygon fill="#ff0000" stroke="#ff0000" points="690.5813,-53.6714 680.0914,-52.1842 687.3643,-59.8884 690.5813,-53.6714"/>
<text text-anchor="start" x="720" y="-72" font-family="Helvetica,sans-Serif" font-size="10.00" fill="#ff0000">not (axil_bready_sbd &amp;&amp; axil_bvalid_sbd) &#160;&#160;</text>
</g>
</g>
</svg>
